<?xml version="1.0" encoding="utf-8" standalone="no"?>
<!DOCTYPE svg PUBLIC "-//W3C//DTD SVG 1.1//EN"
  "http://www.w3.org/Graphics/SVG/1.1/DTD/svg11.dtd">
<svg xmlns:xlink="http://www.w3.org/1999/xlink" width="1072.610937pt" height="351.120312pt" viewBox="0 0 1072.610937 351.120312" xmlns="http://www.w3.org/2000/svg" version="1.1">
 <metadata>
  <rdf:RDF xmlns:dc="http://purl.org/dc/elements/1.1/" xmlns:cc="http://creativecommons.org/ns#" xmlns:rdf="http://www.w3.org/1999/02/22-rdf-syntax-ns#">
   <cc:Work>
    <dc:type rdf:resource="http://purl.org/dc/dcmitype/StillImage"/>
    <dc:date>2026-01-26T23:48:03.149854</dc:date>
    <dc:format>image/svg+xml</dc:format>
    <dc:creator>
     <cc:Agent>
      <dc:title>Matplotlib v3.10.3, https://matplotlib.org/</dc:title>
     </cc:Agent>
    </dc:creator>
   </cc:Work>
  </rdf:RDF>
 </metadata>
 <defs>
  <style type="text/css">*{stroke-linejoin: round; stroke-linecap: butt}</style>
 </defs>
 <g id="figure_1">
  <g id="patch_1">
   <path d="M 0 351.120312 
L 1072.610937 351.120312 
L 1072.610937 0 
L 0 0 
z
" style="fill: #ffffff"/>
  </g>
  <g id="axes_1">
   <g id="patch_2">
    <path d="M 45.470938 316.978125 
L 351.470937 316.978125 
L 351.470937 22.318125 
L 45.470938 22.318125 
z
" style="fill: #ffffff"/>
   </g>
   <g id="matplotlib.axis_1">
    <g id="xtick_1">
     <g id="line2d_1"/>
     <g id="text_1">
      <!-- S1 -->
      <g style="fill: #262626" transform="translate(81.478288 327.316719) scale(0.09 -0.09)">
       <defs>
        <path id="DejaVuSans-53" d="M 3425 4513 
L 3425 3897 
Q 3066 4069 2747 4153 
Q 2428 4238 2131 4238 
Q 1616 4238 1336 4038 
Q 1056 3838 1056 3469 
Q 1056 3159 1242 3001 
Q 1428 2844 1947 2747 
L 2328 2669 
Q 3034 2534 3370 2195 
Q 3706 1856 3706 1288 
Q 3706 609 3251 259 
Q 2797 -91 1919 -91 
Q 1588 -91 1214 -16 
Q 841 59 441 206 
L 441 856 
Q 825 641 1194 531 
Q 1563 422 1919 422 
Q 2459 422 2753 634 
Q 3047 847 3047 1241 
Q 3047 1584 2836 1778 
Q 2625 1972 2144 2069 
L 1759 2144 
Q 1053 2284 737 2584 
Q 422 2884 422 3419 
Q 422 4038 858 4394 
Q 1294 4750 2059 4750 
Q 2388 4750 2728 4690 
Q 3069 4631 3425 4513 
z
" transform="scale(0.015625)"/>
        <path id="DejaVuSans-31" d="M 794 531 
L 1825 531 
L 1825 4091 
L 703 3866 
L 703 4441 
L 1819 4666 
L 2450 4666 
L 2450 531 
L 3481 531 
L 3481 0 
L 794 0 
L 794 531 
z
" transform="scale(0.015625)"/>
       </defs>
       <use xlink:href="#DejaVuSans-53"/>
       <use xlink:href="#DejaVuSans-31" transform="translate(63.476562 0)"/>
      </g>
     </g>
    </g>
    <g id="xtick_2">
     <g id="line2d_2"/>
     <g id="text_2">
      <!-- S2 -->
      <g style="fill: #262626" transform="translate(155.660107 327.316719) scale(0.09 -0.09)">
       <defs>
        <path id="DejaVuSans-32" d="M 1228 531 
L 3431 531 
L 3431 0 
L 469 0 
L 469 531 
Q 828 903 1448 1529 
Q 2069 2156 2228 2338 
Q 2531 2678 2651 2914 
Q 2772 3150 2772 3378 
Q 2772 3750 2511 3984 
Q 2250 4219 1831 4219 
Q 1534 4219 1204 4116 
Q 875 4013 500 3803 
L 500 4441 
Q 881 4594 1212 4672 
Q 1544 4750 1819 4750 
Q 2544 4750 2975 4387 
Q 3406 4025 3406 3419 
Q 3406 3131 3298 2873 
Q 3191 2616 2906 2266 
Q 2828 2175 2409 1742 
Q 1991 1309 1228 531 
z
" transform="scale(0.015625)"/>
       </defs>
       <use xlink:href="#DejaVuSans-53"/>
       <use xlink:href="#DejaVuSans-32" transform="translate(63.476562 0)"/>
      </g>
     </g>
    </g>
    <g id="xtick_3">
     <g id="line2d_3"/>
     <g id="text_3">
      <!-- S3 -->
      <g style="fill: #262626" transform="translate(229.841925 327.316719) scale(0.09 -0.09)">
       <defs>
        <path id="DejaVuSans-33" d="M 2597 2516 
Q 3050 2419 3304 2112 
Q 3559 1806 3559 1356 
Q 3559 666 3084 287 
Q 2609 -91 1734 -91 
Q 1441 -91 1130 -33 
Q 819 25 488 141 
L 488 750 
Q 750 597 1062 519 
Q 1375 441 1716 441 
Q 2309 441 2620 675 
Q 2931 909 2931 1356 
Q 2931 1769 2642 2001 
Q 2353 2234 1838 2234 
L 1294 2234 
L 1294 2753 
L 1863 2753 
Q 2328 2753 2575 2939 
Q 2822 3125 2822 3475 
Q 2822 3834 2567 4026 
Q 2313 4219 1838 4219 
Q 1578 4219 1281 4162 
Q 984 4106 628 3988 
L 628 4550 
Q 988 4650 1302 4700 
Q 1616 4750 1894 4750 
Q 2613 4750 3031 4423 
Q 3450 4097 3450 3541 
Q 3450 3153 3228 2886 
Q 3006 2619 2597 2516 
z
" transform="scale(0.015625)"/>
       </defs>
       <use xlink:href="#DejaVuSans-53"/>
       <use xlink:href="#DejaVuSans-33" transform="translate(63.476562 0)"/>
      </g>
     </g>
    </g>
    <g id="xtick_4">
     <g id="line2d_4"/>
     <g id="text_4">
      <!-- S5 -->
      <g style="fill: #262626" transform="translate(304.023743 327.316719) scale(0.09 -0.09)">
       <defs>
        <path id="DejaVuSans-35" d="M 691 4666 
L 3169 4666 
L 3169 4134 
L 1269 4134 
L 1269 2991 
Q 1406 3038 1543 3061 
Q 1681 3084 1819 3084 
Q 2600 3084 3056 2656 
Q 3513 2228 3513 1497 
Q 3513 744 3044 326 
Q 2575 -91 1722 -91 
Q 1428 -91 1123 -41 
Q 819 9 494 109 
L 494 744 
Q 775 591 1075 516 
Q 1375 441 1709 441 
Q 2250 441 2565 725 
Q 2881 1009 2881 1497 
Q 2881 1984 2565 2268 
Q 2250 2553 1709 2553 
Q 1456 2553 1204 2497 
Q 953 2441 691 2322 
L 691 4666 
z
" transform="scale(0.015625)"/>
       </defs>
       <use xlink:href="#DejaVuSans-53"/>
       <use xlink:href="#DejaVuSans-35" transform="translate(63.476562 0)"/>
      </g>
     </g>
    </g>
    <g id="text_5">
     <!-- Subject -->
     <g style="fill: #262626" transform="translate(175.152656 341.546719) scale(0.11 -0.11)">
      <defs>
       <path id="DejaVuSans-Bold-53" d="M 3834 4519 
L 3834 3531 
Q 3450 3703 3084 3790 
Q 2719 3878 2394 3878 
Q 1963 3878 1756 3759 
Q 1550 3641 1550 3391 
Q 1550 3203 1689 3098 
Q 1828 2994 2194 2919 
L 2706 2816 
Q 3484 2659 3812 2340 
Q 4141 2022 4141 1434 
Q 4141 663 3683 286 
Q 3225 -91 2284 -91 
Q 1841 -91 1394 -6 
Q 947 78 500 244 
L 500 1259 
Q 947 1022 1364 901 
Q 1781 781 2169 781 
Q 2563 781 2772 912 
Q 2981 1044 2981 1288 
Q 2981 1506 2839 1625 
Q 2697 1744 2272 1838 
L 1806 1941 
Q 1106 2091 782 2419 
Q 459 2747 459 3303 
Q 459 4000 909 4375 
Q 1359 4750 2203 4750 
Q 2588 4750 2994 4692 
Q 3400 4634 3834 4519 
z
" transform="scale(0.015625)"/>
       <path id="DejaVuSans-Bold-75" d="M 500 1363 
L 500 3500 
L 1625 3500 
L 1625 3150 
Q 1625 2866 1622 2436 
Q 1619 2006 1619 1863 
Q 1619 1441 1641 1255 
Q 1663 1069 1716 984 
Q 1784 875 1895 815 
Q 2006 756 2150 756 
Q 2500 756 2700 1025 
Q 2900 1294 2900 1772 
L 2900 3500 
L 4019 3500 
L 4019 0 
L 2900 0 
L 2900 506 
Q 2647 200 2364 54 
Q 2081 -91 1741 -91 
Q 1134 -91 817 281 
Q 500 653 500 1363 
z
" transform="scale(0.015625)"/>
       <path id="DejaVuSans-Bold-62" d="M 2400 722 
Q 2759 722 2948 984 
Q 3138 1247 3138 1747 
Q 3138 2247 2948 2509 
Q 2759 2772 2400 2772 
Q 2041 2772 1848 2508 
Q 1656 2244 1656 1747 
Q 1656 1250 1848 986 
Q 2041 722 2400 722 
z
M 1656 2988 
Q 1888 3294 2169 3439 
Q 2450 3584 2816 3584 
Q 3463 3584 3878 3070 
Q 4294 2556 4294 1747 
Q 4294 938 3878 423 
Q 3463 -91 2816 -91 
Q 2450 -91 2169 54 
Q 1888 200 1656 506 
L 1656 0 
L 538 0 
L 538 4863 
L 1656 4863 
L 1656 2988 
z
" transform="scale(0.015625)"/>
       <path id="DejaVuSans-Bold-6a" d="M 538 3500 
L 1656 3500 
L 1656 63 
Q 1656 -641 1318 -1011 
Q 981 -1381 341 -1381 
L -213 -1381 
L -213 -647 
L -19 -647 
Q 300 -647 419 -503 
Q 538 -359 538 63 
L 538 3500 
z
M 538 4863 
L 1656 4863 
L 1656 3950 
L 538 3950 
L 538 4863 
z
" transform="scale(0.015625)"/>
       <path id="DejaVuSans-Bold-65" d="M 4031 1759 
L 4031 1441 
L 1416 1441 
Q 1456 1047 1700 850 
Q 1944 653 2381 653 
Q 2734 653 3104 758 
Q 3475 863 3866 1075 
L 3866 213 
Q 3469 63 3072 -14 
Q 2675 -91 2278 -91 
Q 1328 -91 801 392 
Q 275 875 275 1747 
Q 275 2603 792 3093 
Q 1309 3584 2216 3584 
Q 3041 3584 3536 3087 
Q 4031 2591 4031 1759 
z
M 2881 2131 
Q 2881 2450 2695 2645 
Q 2509 2841 2209 2841 
Q 1884 2841 1681 2658 
Q 1478 2475 1428 2131 
L 2881 2131 
z
" transform="scale(0.015625)"/>
       <path id="DejaVuSans-Bold-63" d="M 3366 3391 
L 3366 2478 
Q 3138 2634 2908 2709 
Q 2678 2784 2431 2784 
Q 1963 2784 1702 2511 
Q 1441 2238 1441 1747 
Q 1441 1256 1702 982 
Q 1963 709 2431 709 
Q 2694 709 2930 787 
Q 3166 866 3366 1019 
L 3366 103 
Q 3103 6 2833 -42 
Q 2563 -91 2291 -91 
Q 1344 -91 809 395 
Q 275 881 275 1747 
Q 275 2613 809 3098 
Q 1344 3584 2291 3584 
Q 2566 3584 2833 3536 
Q 3100 3488 3366 3391 
z
" transform="scale(0.015625)"/>
       <path id="DejaVuSans-Bold-74" d="M 1759 4494 
L 1759 3500 
L 2913 3500 
L 2913 2700 
L 1759 2700 
L 1759 1216 
Q 1759 972 1856 886 
Q 1953 800 2241 800 
L 2816 800 
L 2816 0 
L 1856 0 
Q 1194 0 917 276 
Q 641 553 641 1216 
L 641 2700 
L 84 2700 
L 84 3500 
L 641 3500 
L 641 4494 
L 1759 4494 
z
" transform="scale(0.015625)"/>
      </defs>
      <use xlink:href="#DejaVuSans-Bold-53"/>
      <use xlink:href="#DejaVuSans-Bold-75" transform="translate(72.021484 0)"/>
      <use xlink:href="#DejaVuSans-Bold-62" transform="translate(143.212891 0)"/>
      <use xlink:href="#DejaVuSans-Bold-6a" transform="translate(214.794922 0)"/>
      <use xlink:href="#DejaVuSans-Bold-65" transform="translate(249.072266 0)"/>
      <use xlink:href="#DejaVuSans-Bold-63" transform="translate(316.894531 0)"/>
      <use xlink:href="#DejaVuSans-Bold-74" transform="translate(376.171875 0)"/>
     </g>
    </g>
   </g>
   <g id="matplotlib.axis_2">
    <g id="ytick_1">
     <g id="line2d_5"/>
     <g id="text_6">
      <!-- 0.00 -->
      <g style="fill: #262626" transform="translate(21.931875 320.397422) scale(0.09 -0.09)">
       <defs>
        <path id="DejaVuSans-30" d="M 2034 4250 
Q 1547 4250 1301 3770 
Q 1056 3291 1056 2328 
Q 1056 1369 1301 889 
Q 1547 409 2034 409 
Q 2525 409 2770 889 
Q 3016 1369 3016 2328 
Q 3016 3291 2770 3770 
Q 2525 4250 2034 4250 
z
M 2034 4750 
Q 2819 4750 3233 4129 
Q 3647 3509 3647 2328 
Q 3647 1150 3233 529 
Q 2819 -91 2034 -91 
Q 1250 -91 836 529 
Q 422 1150 422 2328 
Q 422 3509 836 4129 
Q 1250 4750 2034 4750 
z
" transform="scale(0.015625)"/>
        <path id="DejaVuSans-2e" d="M 684 794 
L 1344 794 
L 1344 0 
L 684 0 
L 684 794 
z
" transform="scale(0.015625)"/>
       </defs>
       <use xlink:href="#DejaVuSans-30"/>
       <use xlink:href="#DejaVuSans-2e" transform="translate(63.623047 0)"/>
       <use xlink:href="#DejaVuSans-30" transform="translate(95.410156 0)"/>
       <use xlink:href="#DejaVuSans-30" transform="translate(159.033203 0)"/>
      </g>
     </g>
    </g>
    <g id="ytick_2">
     <g id="line2d_6"/>
     <g id="text_7">
      <!-- 0.05 -->
      <g style="fill: #262626" transform="translate(21.931875 278.303136) scale(0.09 -0.09)">
       <use xlink:href="#DejaVuSans-30"/>
       <use xlink:href="#DejaVuSans-2e" transform="translate(63.623047 0)"/>
       <use xlink:href="#DejaVuSans-30" transform="translate(95.410156 0)"/>
       <use xlink:href="#DejaVuSans-35" transform="translate(159.033203 0)"/>
      </g>
     </g>
    </g>
    <g id="ytick_3">
     <g id="line2d_7"/>
     <g id="text_8">
      <!-- 0.10 -->
      <g style="fill: #262626" transform="translate(21.931875 236.20885) scale(0.09 -0.09)">
       <use xlink:href="#DejaVuSans-30"/>
       <use xlink:href="#DejaVuSans-2e" transform="translate(63.623047 0)"/>
       <use xlink:href="#DejaVuSans-31" transform="translate(95.410156 0)"/>
       <use xlink:href="#DejaVuSans-30" transform="translate(159.033203 0)"/>
      </g>
     </g>
    </g>
    <g id="ytick_4">
     <g id="line2d_8"/>
     <g id="text_9">
      <!-- 0.15 -->
      <g style="fill: #262626" transform="translate(21.931875 194.114565) scale(0.09 -0.09)">
       <use xlink:href="#DejaVuSans-30"/>
       <use xlink:href="#DejaVuSans-2e" transform="translate(63.623047 0)"/>
       <use xlink:href="#DejaVuSans-31" transform="translate(95.410156 0)"/>
       <use xlink:href="#DejaVuSans-35" transform="translate(159.033203 0)"/>
      </g>
     </g>
    </g>
    <g id="ytick_5">
     <g id="line2d_9"/>
     <g id="text_10">
      <!-- 0.20 -->
      <g style="fill: #262626" transform="translate(21.931875 152.020279) scale(0.09 -0.09)">
       <use xlink:href="#DejaVuSans-30"/>
       <use xlink:href="#DejaVuSans-2e" transform="translate(63.623047 0)"/>
       <use xlink:href="#DejaVuSans-32" transform="translate(95.410156 0)"/>
       <use xlink:href="#DejaVuSans-30" transform="translate(159.033203 0)"/>
      </g>
     </g>
    </g>
    <g id="ytick_6">
     <g id="line2d_10"/>
     <g id="text_11">
      <!-- 0.25 -->
      <g style="fill: #262626" transform="translate(21.931875 109.925993) scale(0.09 -0.09)">
       <use xlink:href="#DejaVuSans-30"/>
       <use xlink:href="#DejaVuSans-2e" transform="translate(63.623047 0)"/>
       <use xlink:href="#DejaVuSans-32" transform="translate(95.410156 0)"/>
       <use xlink:href="#DejaVuSans-35" transform="translate(159.033203 0)"/>
      </g>
     </g>
    </g>
    <g id="ytick_7">
     <g id="line2d_11"/>
     <g id="text_12">
      <!-- 0.30 -->
      <g style="fill: #262626" transform="translate(21.931875 67.831708) scale(0.09 -0.09)">
       <use xlink:href="#DejaVuSans-30"/>
       <use xlink:href="#DejaVuSans-2e" transform="translate(63.623047 0)"/>
       <use xlink:href="#DejaVuSans-33" transform="translate(95.410156 0)"/>
       <use xlink:href="#DejaVuSans-30" transform="translate(159.033203 0)"/>
      </g>
     </g>
    </g>
    <g id="ytick_8">
     <g id="line2d_12"/>
     <g id="text_13">
      <!-- 0.35 -->
      <g style="fill: #262626" transform="translate(21.931875 25.737422) scale(0.09 -0.09)">
       <use xlink:href="#DejaVuSans-30"/>
       <use xlink:href="#DejaVuSans-2e" transform="translate(63.623047 0)"/>
       <use xlink:href="#DejaVuSans-33" transform="translate(95.410156 0)"/>
       <use xlink:href="#DejaVuSans-35" transform="translate(159.033203 0)"/>
      </g>
     </g>
    </g>
    <g id="text_14">
     <!-- Mean Encoding Accuracy (r) -->
     <g style="fill: #262626" transform="translate(15.558281 256.310937) rotate(-90) scale(0.11 -0.11)">
      <defs>
       <path id="DejaVuSans-Bold-4d" d="M 588 4666 
L 2119 4666 
L 3181 2169 
L 4250 4666 
L 5778 4666 
L 5778 0 
L 4641 0 
L 4641 3413 
L 3566 897 
L 2803 897 
L 1728 3413 
L 1728 0 
L 588 0 
L 588 4666 
z
" transform="scale(0.015625)"/>
       <path id="DejaVuSans-Bold-61" d="M 2106 1575 
Q 1756 1575 1579 1456 
Q 1403 1338 1403 1106 
Q 1403 894 1545 773 
Q 1688 653 1941 653 
Q 2256 653 2472 879 
Q 2688 1106 2688 1447 
L 2688 1575 
L 2106 1575 
z
M 3816 1997 
L 3816 0 
L 2688 0 
L 2688 519 
Q 2463 200 2181 54 
Q 1900 -91 1497 -91 
Q 953 -91 614 226 
Q 275 544 275 1050 
Q 275 1666 698 1953 
Q 1122 2241 2028 2241 
L 2688 2241 
L 2688 2328 
Q 2688 2594 2478 2717 
Q 2269 2841 1825 2841 
Q 1466 2841 1156 2769 
Q 847 2697 581 2553 
L 581 3406 
Q 941 3494 1303 3539 
Q 1666 3584 2028 3584 
Q 2975 3584 3395 3211 
Q 3816 2838 3816 1997 
z
" transform="scale(0.015625)"/>
       <path id="DejaVuSans-Bold-6e" d="M 4056 2131 
L 4056 0 
L 2931 0 
L 2931 347 
L 2931 1631 
Q 2931 2084 2911 2256 
Q 2891 2428 2841 2509 
Q 2775 2619 2662 2680 
Q 2550 2741 2406 2741 
Q 2056 2741 1856 2470 
Q 1656 2200 1656 1722 
L 1656 0 
L 538 0 
L 538 3500 
L 1656 3500 
L 1656 2988 
Q 1909 3294 2193 3439 
Q 2478 3584 2822 3584 
Q 3428 3584 3742 3212 
Q 4056 2841 4056 2131 
z
" transform="scale(0.015625)"/>
       <path id="DejaVuSans-Bold-20" transform="scale(0.015625)"/>
       <path id="DejaVuSans-Bold-45" d="M 588 4666 
L 3834 4666 
L 3834 3756 
L 1791 3756 
L 1791 2888 
L 3713 2888 
L 3713 1978 
L 1791 1978 
L 1791 909 
L 3903 909 
L 3903 0 
L 588 0 
L 588 4666 
z
" transform="scale(0.015625)"/>
       <path id="DejaVuSans-Bold-6f" d="M 2203 2784 
Q 1831 2784 1636 2517 
Q 1441 2250 1441 1747 
Q 1441 1244 1636 976 
Q 1831 709 2203 709 
Q 2569 709 2762 976 
Q 2956 1244 2956 1747 
Q 2956 2250 2762 2517 
Q 2569 2784 2203 2784 
z
M 2203 3584 
Q 3106 3584 3614 3096 
Q 4122 2609 4122 1747 
Q 4122 884 3614 396 
Q 3106 -91 2203 -91 
Q 1297 -91 786 396 
Q 275 884 275 1747 
Q 275 2609 786 3096 
Q 1297 3584 2203 3584 
z
" transform="scale(0.015625)"/>
       <path id="DejaVuSans-Bold-64" d="M 2919 2988 
L 2919 4863 
L 4044 4863 
L 4044 0 
L 2919 0 
L 2919 506 
Q 2688 197 2409 53 
Q 2131 -91 1766 -91 
Q 1119 -91 703 423 
Q 288 938 288 1747 
Q 288 2556 703 3070 
Q 1119 3584 1766 3584 
Q 2128 3584 2408 3439 
Q 2688 3294 2919 2988 
z
M 2181 722 
Q 2541 722 2730 984 
Q 2919 1247 2919 1747 
Q 2919 2247 2730 2509 
Q 2541 2772 2181 2772 
Q 1825 2772 1636 2509 
Q 1447 2247 1447 1747 
Q 1447 1247 1636 984 
Q 1825 722 2181 722 
z
" transform="scale(0.015625)"/>
       <path id="DejaVuSans-Bold-69" d="M 538 3500 
L 1656 3500 
L 1656 0 
L 538 0 
L 538 3500 
z
M 538 4863 
L 1656 4863 
L 1656 3950 
L 538 3950 
L 538 4863 
z
" transform="scale(0.015625)"/>
       <path id="DejaVuSans-Bold-67" d="M 2919 594 
Q 2688 288 2409 144 
Q 2131 0 1766 0 
Q 1125 0 706 504 
Q 288 1009 288 1791 
Q 288 2575 706 3076 
Q 1125 3578 1766 3578 
Q 2131 3578 2409 3434 
Q 2688 3291 2919 2981 
L 2919 3500 
L 4044 3500 
L 4044 353 
Q 4044 -491 3511 -936 
Q 2978 -1381 1966 -1381 
Q 1638 -1381 1331 -1331 
Q 1025 -1281 716 -1178 
L 716 -306 
Q 1009 -475 1290 -558 
Q 1572 -641 1856 -641 
Q 2406 -641 2662 -400 
Q 2919 -159 2919 353 
L 2919 594 
z
M 2181 2772 
Q 1834 2772 1640 2515 
Q 1447 2259 1447 1791 
Q 1447 1309 1634 1061 
Q 1822 813 2181 813 
Q 2531 813 2725 1069 
Q 2919 1325 2919 1791 
Q 2919 2259 2725 2515 
Q 2531 2772 2181 2772 
z
" transform="scale(0.015625)"/>
       <path id="DejaVuSans-Bold-41" d="M 3419 850 
L 1538 850 
L 1241 0 
L 31 0 
L 1759 4666 
L 3194 4666 
L 4922 0 
L 3713 0 
L 3419 850 
z
M 1838 1716 
L 3116 1716 
L 2478 3572 
L 1838 1716 
z
" transform="scale(0.015625)"/>
       <path id="DejaVuSans-Bold-72" d="M 3138 2547 
Q 2991 2616 2845 2648 
Q 2700 2681 2553 2681 
Q 2122 2681 1889 2404 
Q 1656 2128 1656 1613 
L 1656 0 
L 538 0 
L 538 3500 
L 1656 3500 
L 1656 2925 
Q 1872 3269 2151 3426 
Q 2431 3584 2822 3584 
Q 2878 3584 2943 3579 
Q 3009 3575 3134 3559 
L 3138 2547 
z
" transform="scale(0.015625)"/>
       <path id="DejaVuSans-Bold-79" d="M 78 3500 
L 1197 3500 
L 2138 1125 
L 2938 3500 
L 4056 3500 
L 2584 -331 
Q 2363 -916 2067 -1148 
Q 1772 -1381 1288 -1381 
L 641 -1381 
L 641 -647 
L 991 -647 
Q 1275 -647 1404 -556 
Q 1534 -466 1606 -231 
L 1638 -134 
L 78 3500 
z
" transform="scale(0.015625)"/>
       <path id="DejaVuSans-Bold-28" d="M 2413 -844 
L 1484 -844 
Q 1006 -72 778 623 
Q 550 1319 550 2003 
Q 550 2688 779 3389 
Q 1009 4091 1484 4856 
L 2413 4856 
Q 2013 4116 1813 3408 
Q 1613 2700 1613 2009 
Q 1613 1319 1811 609 
Q 2009 -100 2413 -844 
z
" transform="scale(0.015625)"/>
       <path id="DejaVuSans-Bold-29" d="M 513 -844 
Q 913 -100 1113 609 
Q 1313 1319 1313 2009 
Q 1313 2700 1113 3408 
Q 913 4116 513 4856 
L 1441 4856 
Q 1916 4091 2145 3389 
Q 2375 2688 2375 2003 
Q 2375 1319 2147 623 
Q 1919 -72 1441 -844 
L 513 -844 
z
" transform="scale(0.015625)"/>
      </defs>
      <use xlink:href="#DejaVuSans-Bold-4d"/>
      <use xlink:href="#DejaVuSans-Bold-65" transform="translate(99.511719 0)"/>
      <use xlink:href="#DejaVuSans-Bold-61" transform="translate(167.333984 0)"/>
      <use xlink:href="#DejaVuSans-Bold-6e" transform="translate(234.814453 0)"/>
      <use xlink:href="#DejaVuSans-Bold-20" transform="translate(306.005859 0)"/>
      <use xlink:href="#DejaVuSans-Bold-45" transform="translate(340.820312 0)"/>
      <use xlink:href="#DejaVuSans-Bold-6e" transform="translate(409.130859 0)"/>
      <use xlink:href="#DejaVuSans-Bold-63" transform="translate(480.322266 0)"/>
      <use xlink:href="#DejaVuSans-Bold-6f" transform="translate(539.599609 0)"/>
      <use xlink:href="#DejaVuSans-Bold-64" transform="translate(608.300781 0)"/>
      <use xlink:href="#DejaVuSans-Bold-69" transform="translate(679.882812 0)"/>
      <use xlink:href="#DejaVuSans-Bold-6e" transform="translate(714.160156 0)"/>
      <use xlink:href="#DejaVuSans-Bold-67" transform="translate(785.351562 0)"/>
      <use xlink:href="#DejaVuSans-Bold-20" transform="translate(856.933594 0)"/>
      <use xlink:href="#DejaVuSans-Bold-41" transform="translate(891.748047 0)"/>
      <use xlink:href="#DejaVuSans-Bold-63" transform="translate(969.140625 0)"/>
      <use xlink:href="#DejaVuSans-Bold-63" transform="translate(1028.417969 0)"/>
      <use xlink:href="#DejaVuSans-Bold-75" transform="translate(1087.695312 0)"/>
      <use xlink:href="#DejaVuSans-Bold-72" transform="translate(1158.886719 0)"/>
      <use xlink:href="#DejaVuSans-Bold-61" transform="translate(1208.203125 0)"/>
      <use xlink:href="#DejaVuSans-Bold-63" transform="translate(1275.683594 0)"/>
      <use xlink:href="#DejaVuSans-Bold-79" transform="translate(1334.960938 0)"/>
      <use xlink:href="#DejaVuSans-Bold-20" transform="translate(1400.146484 0)"/>
      <use xlink:href="#DejaVuSans-Bold-28" transform="translate(1434.960938 0)"/>
      <use xlink:href="#DejaVuSans-Bold-72" transform="translate(1480.664062 0)"/>
      <use xlink:href="#DejaVuSans-Bold-29" transform="translate(1529.980469 0)"/>
     </g>
    </g>
   </g>
   <g id="patch_3">
    <path d="M 59.380028 316.978125 
L 77.925483 316.978125 
L 77.925483 137.083218 
L 59.380028 137.083218 
z
" clip-path="url(#p86acde6c93)" style="fill: #ef6548; opacity: 0.85; stroke: #ffffff; stroke-linejoin: miter"/>
   </g>
   <g id="patch_4">
    <path d="M 133.561847 316.978125 
L 152.107301 316.978125 
L 152.107301 152.49417 
L 133.561847 152.49417 
z
" clip-path="url(#p86acde6c93)" style="fill: #ef6548; opacity: 0.85; stroke: #ffffff; stroke-linejoin: miter"/>
   </g>
   <g id="patch_5">
    <path d="M 207.743665 316.978125 
L 226.289119 316.978125 
L 226.289119 131.692493 
L 207.743665 131.692493 
z
" clip-path="url(#p86acde6c93)" style="fill: #ef6548; opacity: 0.85; stroke: #ffffff; stroke-linejoin: miter"/>
   </g>
   <g id="patch_6">
    <path d="M 281.925483 316.978125 
L 300.470938 316.978125 
L 300.470938 160.094526 
L 281.925483 160.094526 
z
" clip-path="url(#p86acde6c93)" style="fill: #ef6548; opacity: 0.85; stroke: #ffffff; stroke-linejoin: miter"/>
   </g>
   <g id="patch_7">
    <path d="M 77.925483 316.978125 
L 96.470938 316.978125 
L 96.470938 222.433752 
L 77.925483 222.433752 
z
" clip-path="url(#p86acde6c93)" style="fill: #74a9cf; opacity: 0.85; stroke: #ffffff; stroke-linejoin: miter"/>
   </g>
   <g id="patch_8">
    <path d="M 152.107301 316.978125 
L 170.652756 316.978125 
L 170.652756 230.820341 
L 152.107301 230.820341 
z
" clip-path="url(#p86acde6c93)" style="fill: #74a9cf; opacity: 0.85; stroke: #ffffff; stroke-linejoin: miter"/>
   </g>
   <g id="patch_9">
    <path d="M 226.289119 316.978125 
L 244.834574 316.978125 
L 244.834574 217.343247 
L 226.289119 217.343247 
z
" clip-path="url(#p86acde6c93)" style="fill: #74a9cf; opacity: 0.85; stroke: #ffffff; stroke-linejoin: miter"/>
   </g>
   <g id="patch_10">
    <path d="M 300.470937 316.978125 
L 319.016392 316.978125 
L 319.016392 236.638172 
L 300.470937 236.638172 
z
" clip-path="url(#p86acde6c93)" style="fill: #74a9cf; opacity: 0.85; stroke: #ffffff; stroke-linejoin: miter"/>
   </g>
   <g id="patch_11">
    <path d="M 96.470938 316.978125 
L 115.016392 316.978125 
L 115.016392 208.532717 
L 96.470938 208.532717 
z
" clip-path="url(#p86acde6c93)" style="fill: #66c2a4; opacity: 0.85; stroke: #ffffff; stroke-linejoin: miter"/>
   </g>
   <g id="patch_12">
    <path d="M 170.652756 316.978125 
L 189.19821 316.978125 
L 189.19821 207.201135 
L 170.652756 207.201135 
z
" clip-path="url(#p86acde6c93)" style="fill: #66c2a4; opacity: 0.85; stroke: #ffffff; stroke-linejoin: miter"/>
   </g>
   <g id="patch_13">
    <path d="M 244.834574 316.978125 
L 263.380028 316.978125 
L 263.380028 217.05769 
L 244.834574 217.05769 
z
" clip-path="url(#p86acde6c93)" style="fill: #66c2a4; opacity: 0.85; stroke: #ffffff; stroke-linejoin: miter"/>
   </g>
   <g id="patch_14">
    <path d="M 319.016392 316.978125 
L 337.561847 316.978125 
L 337.561847 224.194386 
L 319.016392 224.194386 
z
" clip-path="url(#p86acde6c93)" style="fill: #66c2a4; opacity: 0.85; stroke: #ffffff; stroke-linejoin: miter"/>
   </g>
   <g id="patch_15">
    <path d="M 45.470938 316.978125 
L 45.470938 22.318125 
" style="fill: none; stroke: #262626; stroke-linejoin: miter; stroke-linecap: square"/>
   </g>
   <g id="patch_16">
    <path d="M 45.470938 316.978125 
L 351.470938 316.978125 
" style="fill: none; stroke: #262626; stroke-linejoin: miter; stroke-linecap: square"/>
   </g>
   <g id="text_15">
    <!-- A. Performance by Subject -->
    <g style="fill: #262626" transform="translate(45.470938 16.318125) scale(0.12 -0.12)">
     <defs>
      <path id="DejaVuSans-Bold-2e" d="M 653 1209 
L 1778 1209 
L 1778 0 
L 653 0 
L 653 1209 
z
" transform="scale(0.015625)"/>
      <path id="DejaVuSans-Bold-50" d="M 588 4666 
L 2584 4666 
Q 3475 4666 3951 4270 
Q 4428 3875 4428 3144 
Q 4428 2409 3951 2014 
Q 3475 1619 2584 1619 
L 1791 1619 
L 1791 0 
L 588 0 
L 588 4666 
z
M 1791 3794 
L 1791 2491 
L 2456 2491 
Q 2806 2491 2997 2661 
Q 3188 2831 3188 3144 
Q 3188 3456 2997 3625 
Q 2806 3794 2456 3794 
L 1791 3794 
z
" transform="scale(0.015625)"/>
      <path id="DejaVuSans-Bold-66" d="M 2841 4863 
L 2841 4128 
L 2222 4128 
Q 1984 4128 1890 4042 
Q 1797 3956 1797 3744 
L 1797 3500 
L 2753 3500 
L 2753 2700 
L 1797 2700 
L 1797 0 
L 678 0 
L 678 2700 
L 122 2700 
L 122 3500 
L 678 3500 
L 678 3744 
Q 678 4316 997 4589 
Q 1316 4863 1984 4863 
L 2841 4863 
z
" transform="scale(0.015625)"/>
      <path id="DejaVuSans-Bold-6d" d="M 3781 2919 
Q 3994 3244 4286 3414 
Q 4578 3584 4928 3584 
Q 5531 3584 5847 3212 
Q 6163 2841 6163 2131 
L 6163 0 
L 5038 0 
L 5038 1825 
Q 5041 1866 5042 1909 
Q 5044 1953 5044 2034 
Q 5044 2406 4934 2573 
Q 4825 2741 4581 2741 
Q 4263 2741 4089 2478 
Q 3916 2216 3909 1719 
L 3909 0 
L 2784 0 
L 2784 1825 
Q 2784 2406 2684 2573 
Q 2584 2741 2328 2741 
Q 2006 2741 1831 2477 
Q 1656 2213 1656 1722 
L 1656 0 
L 531 0 
L 531 3500 
L 1656 3500 
L 1656 2988 
Q 1863 3284 2130 3434 
Q 2397 3584 2719 3584 
Q 3081 3584 3359 3409 
Q 3638 3234 3781 2919 
z
" transform="scale(0.015625)"/>
     </defs>
     <use xlink:href="#DejaVuSans-Bold-41"/>
     <use xlink:href="#DejaVuSans-Bold-2e" transform="translate(79.267578 0)"/>
     <use xlink:href="#DejaVuSans-Bold-20" transform="translate(117.255859 0)"/>
     <use xlink:href="#DejaVuSans-Bold-50" transform="translate(152.070312 0)"/>
     <use xlink:href="#DejaVuSans-Bold-65" transform="translate(225.361328 0)"/>
     <use xlink:href="#DejaVuSans-Bold-72" transform="translate(293.183594 0)"/>
     <use xlink:href="#DejaVuSans-Bold-66" transform="translate(342.5 0)"/>
     <use xlink:href="#DejaVuSans-Bold-6f" transform="translate(386.005859 0)"/>
     <use xlink:href="#DejaVuSans-Bold-72" transform="translate(454.707031 0)"/>
     <use xlink:href="#DejaVuSans-Bold-6d" transform="translate(504.023438 0)"/>
     <use xlink:href="#DejaVuSans-Bold-61" transform="translate(608.222656 0)"/>
     <use xlink:href="#DejaVuSans-Bold-6e" transform="translate(675.703125 0)"/>
     <use xlink:href="#DejaVuSans-Bold-63" transform="translate(746.894531 0)"/>
     <use xlink:href="#DejaVuSans-Bold-65" transform="translate(806.171875 0)"/>
     <use xlink:href="#DejaVuSans-Bold-20" transform="translate(873.994141 0)"/>
     <use xlink:href="#DejaVuSans-Bold-62" transform="translate(908.808594 0)"/>
     <use xlink:href="#DejaVuSans-Bold-79" transform="translate(980.390625 0)"/>
     <use xlink:href="#DejaVuSans-Bold-20" transform="translate(1045.576172 0)"/>
     <use xlink:href="#DejaVuSans-Bold-53" transform="translate(1080.390625 0)"/>
     <use xlink:href="#DejaVuSans-Bold-75" transform="translate(1152.412109 0)"/>
     <use xlink:href="#DejaVuSans-Bold-62" transform="translate(1223.603516 0)"/>
     <use xlink:href="#DejaVuSans-Bold-6a" transform="translate(1295.185547 0)"/>
     <use xlink:href="#DejaVuSans-Bold-65" transform="translate(1329.462891 0)"/>
     <use xlink:href="#DejaVuSans-Bold-63" transform="translate(1397.285156 0)"/>
     <use xlink:href="#DejaVuSans-Bold-74" transform="translate(1456.5625 0)"/>
    </g>
   </g>
   <g id="legend_1">
    <g id="patch_17">
     <path d="M 271.953125 69.149063 
L 345.170937 69.149063 
Q 346.970937 69.149063 346.970937 67.349063 
L 346.970937 28.618125 
Q 346.970937 26.818125 345.170937 26.818125 
L 271.953125 26.818125 
Q 270.153125 26.818125 270.153125 28.618125 
L 270.153125 67.349063 
Q 270.153125 69.149063 271.953125 69.149063 
z
" style="fill: #ffffff; opacity: 0.8; stroke: #cccccc; stroke-width: 1.2; stroke-linejoin: miter"/>
    </g>
    <g id="patch_18">
     <path d="M 273.753125 37.256719 
L 291.753125 37.256719 
L 291.753125 30.956719 
L 273.753125 30.956719 
z
" style="fill: #ef6548; opacity: 0.85; stroke: #ffffff; stroke-linejoin: miter"/>
    </g>
    <g id="text_16">
     <!-- Visual -->
     <g style="fill: #262626" transform="translate(298.953125 37.256719) scale(0.09 -0.09)">
      <defs>
       <path id="DejaVuSans-56" d="M 1831 0 
L 50 4666 
L 709 4666 
L 2188 738 
L 3669 4666 
L 4325 4666 
L 2547 0 
L 1831 0 
z
" transform="scale(0.015625)"/>
       <path id="DejaVuSans-69" d="M 603 3500 
L 1178 3500 
L 1178 0 
L 603 0 
L 603 3500 
z
M 603 4863 
L 1178 4863 
L 1178 4134 
L 603 4134 
L 603 4863 
z
" transform="scale(0.015625)"/>
       <path id="DejaVuSans-73" d="M 2834 3397 
L 2834 2853 
Q 2591 2978 2328 3040 
Q 2066 3103 1784 3103 
Q 1356 3103 1142 2972 
Q 928 2841 928 2578 
Q 928 2378 1081 2264 
Q 1234 2150 1697 2047 
L 1894 2003 
Q 2506 1872 2764 1633 
Q 3022 1394 3022 966 
Q 3022 478 2636 193 
Q 2250 -91 1575 -91 
Q 1294 -91 989 -36 
Q 684 19 347 128 
L 347 722 
Q 666 556 975 473 
Q 1284 391 1588 391 
Q 1994 391 2212 530 
Q 2431 669 2431 922 
Q 2431 1156 2273 1281 
Q 2116 1406 1581 1522 
L 1381 1569 
Q 847 1681 609 1914 
Q 372 2147 372 2553 
Q 372 3047 722 3315 
Q 1072 3584 1716 3584 
Q 2034 3584 2315 3537 
Q 2597 3491 2834 3397 
z
" transform="scale(0.015625)"/>
       <path id="DejaVuSans-75" d="M 544 1381 
L 544 3500 
L 1119 3500 
L 1119 1403 
Q 1119 906 1312 657 
Q 1506 409 1894 409 
Q 2359 409 2629 706 
Q 2900 1003 2900 1516 
L 2900 3500 
L 3475 3500 
L 3475 0 
L 2900 0 
L 2900 538 
Q 2691 219 2414 64 
Q 2138 -91 1772 -91 
Q 1169 -91 856 284 
Q 544 659 544 1381 
z
M 1991 3584 
L 1991 3584 
z
" transform="scale(0.015625)"/>
       <path id="DejaVuSans-61" d="M 2194 1759 
Q 1497 1759 1228 1600 
Q 959 1441 959 1056 
Q 959 750 1161 570 
Q 1363 391 1709 391 
Q 2188 391 2477 730 
Q 2766 1069 2766 1631 
L 2766 1759 
L 2194 1759 
z
M 3341 1997 
L 3341 0 
L 2766 0 
L 2766 531 
Q 2569 213 2275 61 
Q 1981 -91 1556 -91 
Q 1019 -91 701 211 
Q 384 513 384 1019 
Q 384 1609 779 1909 
Q 1175 2209 1959 2209 
L 2766 2209 
L 2766 2266 
Q 2766 2663 2505 2880 
Q 2244 3097 1772 3097 
Q 1472 3097 1187 3025 
Q 903 2953 641 2809 
L 641 3341 
Q 956 3463 1253 3523 
Q 1550 3584 1831 3584 
Q 2591 3584 2966 3190 
Q 3341 2797 3341 1997 
z
" transform="scale(0.015625)"/>
       <path id="DejaVuSans-6c" d="M 603 4863 
L 1178 4863 
L 1178 0 
L 603 0 
L 603 4863 
z
" transform="scale(0.015625)"/>
      </defs>
      <use xlink:href="#DejaVuSans-56"/>
      <use xlink:href="#DejaVuSans-69" transform="translate(66.158203 0)"/>
      <use xlink:href="#DejaVuSans-73" transform="translate(93.941406 0)"/>
      <use xlink:href="#DejaVuSans-75" transform="translate(146.041016 0)"/>
      <use xlink:href="#DejaVuSans-61" transform="translate(209.419922 0)"/>
      <use xlink:href="#DejaVuSans-6c" transform="translate(270.699219 0)"/>
     </g>
    </g>
    <g id="patch_19">
     <path d="M 273.753125 50.467031 
L 291.753125 50.467031 
L 291.753125 44.167031 
L 273.753125 44.167031 
z
" style="fill: #74a9cf; opacity: 0.85; stroke: #ffffff; stroke-linejoin: miter"/>
    </g>
    <g id="text_17">
     <!-- Audio -->
     <g style="fill: #262626" transform="translate(298.953125 50.467031) scale(0.09 -0.09)">
      <defs>
       <path id="DejaVuSans-41" d="M 2188 4044 
L 1331 1722 
L 3047 1722 
L 2188 4044 
z
M 1831 4666 
L 2547 4666 
L 4325 0 
L 3669 0 
L 3244 1197 
L 1141 1197 
L 716 0 
L 50 0 
L 1831 4666 
z
" transform="scale(0.015625)"/>
       <path id="DejaVuSans-64" d="M 2906 2969 
L 2906 4863 
L 3481 4863 
L 3481 0 
L 2906 0 
L 2906 525 
Q 2725 213 2448 61 
Q 2172 -91 1784 -91 
Q 1150 -91 751 415 
Q 353 922 353 1747 
Q 353 2572 751 3078 
Q 1150 3584 1784 3584 
Q 2172 3584 2448 3432 
Q 2725 3281 2906 2969 
z
M 947 1747 
Q 947 1113 1208 752 
Q 1469 391 1925 391 
Q 2381 391 2643 752 
Q 2906 1113 2906 1747 
Q 2906 2381 2643 2742 
Q 2381 3103 1925 3103 
Q 1469 3103 1208 2742 
Q 947 2381 947 1747 
z
" transform="scale(0.015625)"/>
       <path id="DejaVuSans-6f" d="M 1959 3097 
Q 1497 3097 1228 2736 
Q 959 2375 959 1747 
Q 959 1119 1226 758 
Q 1494 397 1959 397 
Q 2419 397 2687 759 
Q 2956 1122 2956 1747 
Q 2956 2369 2687 2733 
Q 2419 3097 1959 3097 
z
M 1959 3584 
Q 2709 3584 3137 3096 
Q 3566 2609 3566 1747 
Q 3566 888 3137 398 
Q 2709 -91 1959 -91 
Q 1206 -91 779 398 
Q 353 888 353 1747 
Q 353 2609 779 3096 
Q 1206 3584 1959 3584 
z
" transform="scale(0.015625)"/>
      </defs>
      <use xlink:href="#DejaVuSans-41"/>
      <use xlink:href="#DejaVuSans-75" transform="translate(68.408203 0)"/>
      <use xlink:href="#DejaVuSans-64" transform="translate(131.787109 0)"/>
      <use xlink:href="#DejaVuSans-69" transform="translate(195.263672 0)"/>
      <use xlink:href="#DejaVuSans-6f" transform="translate(223.046875 0)"/>
     </g>
    </g>
    <g id="patch_20">
     <path d="M 273.753125 63.677344 
L 291.753125 63.677344 
L 291.753125 57.377344 
L 273.753125 57.377344 
z
" style="fill: #66c2a4; opacity: 0.85; stroke: #ffffff; stroke-linejoin: miter"/>
    </g>
    <g id="text_18">
     <!-- Language -->
     <g style="fill: #262626" transform="translate(298.953125 63.677344) scale(0.09 -0.09)">
      <defs>
       <path id="DejaVuSans-4c" d="M 628 4666 
L 1259 4666 
L 1259 531 
L 3531 531 
L 3531 0 
L 628 0 
L 628 4666 
z
" transform="scale(0.015625)"/>
       <path id="DejaVuSans-6e" d="M 3513 2113 
L 3513 0 
L 2938 0 
L 2938 2094 
Q 2938 2591 2744 2837 
Q 2550 3084 2163 3084 
Q 1697 3084 1428 2787 
Q 1159 2491 1159 1978 
L 1159 0 
L 581 0 
L 581 3500 
L 1159 3500 
L 1159 2956 
Q 1366 3272 1645 3428 
Q 1925 3584 2291 3584 
Q 2894 3584 3203 3211 
Q 3513 2838 3513 2113 
z
" transform="scale(0.015625)"/>
       <path id="DejaVuSans-67" d="M 2906 1791 
Q 2906 2416 2648 2759 
Q 2391 3103 1925 3103 
Q 1463 3103 1205 2759 
Q 947 2416 947 1791 
Q 947 1169 1205 825 
Q 1463 481 1925 481 
Q 2391 481 2648 825 
Q 2906 1169 2906 1791 
z
M 3481 434 
Q 3481 -459 3084 -895 
Q 2688 -1331 1869 -1331 
Q 1566 -1331 1297 -1286 
Q 1028 -1241 775 -1147 
L 775 -588 
Q 1028 -725 1275 -790 
Q 1522 -856 1778 -856 
Q 2344 -856 2625 -561 
Q 2906 -266 2906 331 
L 2906 616 
Q 2728 306 2450 153 
Q 2172 0 1784 0 
Q 1141 0 747 490 
Q 353 981 353 1791 
Q 353 2603 747 3093 
Q 1141 3584 1784 3584 
Q 2172 3584 2450 3431 
Q 2728 3278 2906 2969 
L 2906 3500 
L 3481 3500 
L 3481 434 
z
" transform="scale(0.015625)"/>
       <path id="DejaVuSans-65" d="M 3597 1894 
L 3597 1613 
L 953 1613 
Q 991 1019 1311 708 
Q 1631 397 2203 397 
Q 2534 397 2845 478 
Q 3156 559 3463 722 
L 3463 178 
Q 3153 47 2828 -22 
Q 2503 -91 2169 -91 
Q 1331 -91 842 396 
Q 353 884 353 1716 
Q 353 2575 817 3079 
Q 1281 3584 2069 3584 
Q 2775 3584 3186 3129 
Q 3597 2675 3597 1894 
z
M 3022 2063 
Q 3016 2534 2758 2815 
Q 2500 3097 2075 3097 
Q 1594 3097 1305 2825 
Q 1016 2553 972 2059 
L 3022 2063 
z
" transform="scale(0.015625)"/>
      </defs>
      <use xlink:href="#DejaVuSans-4c"/>
      <use xlink:href="#DejaVuSans-61" transform="translate(55.712891 0)"/>
      <use xlink:href="#DejaVuSans-6e" transform="translate(116.992188 0)"/>
      <use xlink:href="#DejaVuSans-67" transform="translate(180.371094 0)"/>
      <use xlink:href="#DejaVuSans-75" transform="translate(243.847656 0)"/>
      <use xlink:href="#DejaVuSans-61" transform="translate(307.226562 0)"/>
      <use xlink:href="#DejaVuSans-67" transform="translate(368.505859 0)"/>
      <use xlink:href="#DejaVuSans-65" transform="translate(431.982422 0)"/>
     </g>
    </g>
   </g>
  </g>
  <g id="axes_2">
   <g id="patch_21">
    <path d="M 402.440937 316.978125 
L 708.440938 316.978125 
L 708.440938 22.318125 
L 402.440937 22.318125 
z
" style="fill: #ffffff"/>
   </g>
   <g id="matplotlib.axis_3">
    <g id="xtick_5">
     <g id="line2d_13"/>
     <g id="text_19">
      <!-- Visual -->
      <g style="fill: #262626" transform="translate(442.659194 327.316719) scale(0.09 -0.09)">
       <use xlink:href="#DejaVuSans-56"/>
       <use xlink:href="#DejaVuSans-69" transform="translate(66.158203 0)"/>
       <use xlink:href="#DejaVuSans-73" transform="translate(93.941406 0)"/>
       <use xlink:href="#DejaVuSans-75" transform="translate(146.041016 0)"/>
       <use xlink:href="#DejaVuSans-61" transform="translate(209.419922 0)"/>
       <use xlink:href="#DejaVuSans-6c" transform="translate(270.699219 0)"/>
      </g>
     </g>
    </g>
    <g id="xtick_6">
     <g id="line2d_14"/>
     <g id="text_20">
      <!-- Audio -->
      <g style="fill: #262626" transform="translate(542.650391 327.316719) scale(0.09 -0.09)">
       <use xlink:href="#DejaVuSans-41"/>
       <use xlink:href="#DejaVuSans-75" transform="translate(68.408203 0)"/>
       <use xlink:href="#DejaVuSans-64" transform="translate(131.787109 0)"/>
       <use xlink:href="#DejaVuSans-69" transform="translate(195.263672 0)"/>
       <use xlink:href="#DejaVuSans-6f" transform="translate(223.046875 0)"/>
      </g>
     </g>
    </g>
    <g id="xtick_7">
     <g id="line2d_15"/>
     <g id="text_21">
      <!-- Language -->
      <g style="fill: #262626" transform="translate(632.582681 327.316719) scale(0.09 -0.09)">
       <use xlink:href="#DejaVuSans-4c"/>
       <use xlink:href="#DejaVuSans-61" transform="translate(55.712891 0)"/>
       <use xlink:href="#DejaVuSans-6e" transform="translate(116.992188 0)"/>
       <use xlink:href="#DejaVuSans-67" transform="translate(180.371094 0)"/>
       <use xlink:href="#DejaVuSans-75" transform="translate(243.847656 0)"/>
       <use xlink:href="#DejaVuSans-61" transform="translate(307.226562 0)"/>
       <use xlink:href="#DejaVuSans-67" transform="translate(368.505859 0)"/>
       <use xlink:href="#DejaVuSans-65" transform="translate(431.982422 0)"/>
      </g>
     </g>
    </g>
   </g>
   <g id="matplotlib.axis_4">
    <g id="ytick_9">
     <g id="line2d_16"/>
     <g id="text_22">
      <!-- 0.00 -->
      <g style="fill: #262626" transform="translate(378.901875 320.397422) scale(0.09 -0.09)">
       <use xlink:href="#DejaVuSans-30"/>
       <use xlink:href="#DejaVuSans-2e" transform="translate(63.623047 0)"/>
       <use xlink:href="#DejaVuSans-30" transform="translate(95.410156 0)"/>
       <use xlink:href="#DejaVuSans-30" transform="translate(159.033203 0)"/>
      </g>
     </g>
    </g>
    <g id="ytick_10">
     <g id="line2d_17"/>
     <g id="text_23">
      <!-- 0.05 -->
      <g style="fill: #262626" transform="translate(378.901875 278.303136) scale(0.09 -0.09)">
       <use xlink:href="#DejaVuSans-30"/>
       <use xlink:href="#DejaVuSans-2e" transform="translate(63.623047 0)"/>
       <use xlink:href="#DejaVuSans-30" transform="translate(95.410156 0)"/>
       <use xlink:href="#DejaVuSans-35" transform="translate(159.033203 0)"/>
      </g>
     </g>
    </g>
    <g id="ytick_11">
     <g id="line2d_18"/>
     <g id="text_24">
      <!-- 0.10 -->
      <g style="fill: #262626" transform="translate(378.901875 236.20885) scale(0.09 -0.09)">
       <use xlink:href="#DejaVuSans-30"/>
       <use xlink:href="#DejaVuSans-2e" transform="translate(63.623047 0)"/>
       <use xlink:href="#DejaVuSans-31" transform="translate(95.410156 0)"/>
       <use xlink:href="#DejaVuSans-30" transform="translate(159.033203 0)"/>
      </g>
     </g>
    </g>
    <g id="ytick_12">
     <g id="line2d_19"/>
     <g id="text_25">
      <!-- 0.15 -->
      <g style="fill: #262626" transform="translate(378.901875 194.114565) scale(0.09 -0.09)">
       <use xlink:href="#DejaVuSans-30"/>
       <use xlink:href="#DejaVuSans-2e" transform="translate(63.623047 0)"/>
       <use xlink:href="#DejaVuSans-31" transform="translate(95.410156 0)"/>
       <use xlink:href="#DejaVuSans-35" transform="translate(159.033203 0)"/>
      </g>
     </g>
    </g>
    <g id="ytick_13">
     <g id="line2d_20"/>
     <g id="text_26">
      <!-- 0.20 -->
      <g style="fill: #262626" transform="translate(378.901875 152.020279) scale(0.09 -0.09)">
       <use xlink:href="#DejaVuSans-30"/>
       <use xlink:href="#DejaVuSans-2e" transform="translate(63.623047 0)"/>
       <use xlink:href="#DejaVuSans-32" transform="translate(95.410156 0)"/>
       <use xlink:href="#DejaVuSans-30" transform="translate(159.033203 0)"/>
      </g>
     </g>
    </g>
    <g id="ytick_14">
     <g id="line2d_21"/>
     <g id="text_27">
      <!-- 0.25 -->
      <g style="fill: #262626" transform="translate(378.901875 109.925993) scale(0.09 -0.09)">
       <use xlink:href="#DejaVuSans-30"/>
       <use xlink:href="#DejaVuSans-2e" transform="translate(63.623047 0)"/>
       <use xlink:href="#DejaVuSans-32" transform="translate(95.410156 0)"/>
       <use xlink:href="#DejaVuSans-35" transform="translate(159.033203 0)"/>
      </g>
     </g>
    </g>
    <g id="ytick_15">
     <g id="line2d_22"/>
     <g id="text_28">
      <!-- 0.30 -->
      <g style="fill: #262626" transform="translate(378.901875 67.831708) scale(0.09 -0.09)">
       <use xlink:href="#DejaVuSans-30"/>
       <use xlink:href="#DejaVuSans-2e" transform="translate(63.623047 0)"/>
       <use xlink:href="#DejaVuSans-33" transform="translate(95.410156 0)"/>
       <use xlink:href="#DejaVuSans-30" transform="translate(159.033203 0)"/>
      </g>
     </g>
    </g>
    <g id="ytick_16">
     <g id="line2d_23"/>
     <g id="text_29">
      <!-- 0.35 -->
      <g style="fill: #262626" transform="translate(378.901875 25.737422) scale(0.09 -0.09)">
       <use xlink:href="#DejaVuSans-30"/>
       <use xlink:href="#DejaVuSans-2e" transform="translate(63.623047 0)"/>
       <use xlink:href="#DejaVuSans-33" transform="translate(95.410156 0)"/>
       <use xlink:href="#DejaVuSans-35" transform="translate(159.033203 0)"/>
      </g>
     </g>
    </g>
    <g id="text_30">
     <!-- Mean Encoding Accuracy (r) -->
     <g style="fill: #262626" transform="translate(372.528281 256.310937) rotate(-90) scale(0.11 -0.11)">
      <use xlink:href="#DejaVuSans-Bold-4d"/>
      <use xlink:href="#DejaVuSans-Bold-65" transform="translate(99.511719 0)"/>
      <use xlink:href="#DejaVuSans-Bold-61" transform="translate(167.333984 0)"/>
      <use xlink:href="#DejaVuSans-Bold-6e" transform="translate(234.814453 0)"/>
      <use xlink:href="#DejaVuSans-Bold-20" transform="translate(306.005859 0)"/>
      <use xlink:href="#DejaVuSans-Bold-45" transform="translate(340.820312 0)"/>
      <use xlink:href="#DejaVuSans-Bold-6e" transform="translate(409.130859 0)"/>
      <use xlink:href="#DejaVuSans-Bold-63" transform="translate(480.322266 0)"/>
      <use xlink:href="#DejaVuSans-Bold-6f" transform="translate(539.599609 0)"/>
      <use xlink:href="#DejaVuSans-Bold-64" transform="translate(608.300781 0)"/>
      <use xlink:href="#DejaVuSans-Bold-69" transform="translate(679.882812 0)"/>
      <use xlink:href="#DejaVuSans-Bold-6e" transform="translate(714.160156 0)"/>
      <use xlink:href="#DejaVuSans-Bold-67" transform="translate(785.351562 0)"/>
      <use xlink:href="#DejaVuSans-Bold-20" transform="translate(856.933594 0)"/>
      <use xlink:href="#DejaVuSans-Bold-41" transform="translate(891.748047 0)"/>
      <use xlink:href="#DejaVuSans-Bold-63" transform="translate(969.140625 0)"/>
      <use xlink:href="#DejaVuSans-Bold-63" transform="translate(1028.417969 0)"/>
      <use xlink:href="#DejaVuSans-Bold-75" transform="translate(1087.695312 0)"/>
      <use xlink:href="#DejaVuSans-Bold-72" transform="translate(1158.886719 0)"/>
      <use xlink:href="#DejaVuSans-Bold-61" transform="translate(1208.203125 0)"/>
      <use xlink:href="#DejaVuSans-Bold-63" transform="translate(1275.683594 0)"/>
      <use xlink:href="#DejaVuSans-Bold-79" transform="translate(1334.960938 0)"/>
      <use xlink:href="#DejaVuSans-Bold-20" transform="translate(1400.146484 0)"/>
      <use xlink:href="#DejaVuSans-Bold-28" transform="translate(1434.960938 0)"/>
      <use xlink:href="#DejaVuSans-Bold-72" transform="translate(1480.664062 0)"/>
      <use xlink:href="#DejaVuSans-Bold-29" transform="translate(1529.980469 0)"/>
     </g>
    </g>
   </g>
   <g id="patch_22">
    <path d="M 416.350028 316.978125 
L 495.830548 316.978125 
L 495.830548 145.341102 
L 416.350028 145.341102 
z
" clip-path="url(#pcfdf90106d)" style="fill: #ef6548; opacity: 0.85; stroke: #ffffff; stroke-width: 1.5; stroke-linejoin: miter"/>
   </g>
   <g id="patch_23">
    <path d="M 515.700678 316.978125 
L 595.181197 316.978125 
L 595.181197 226.808878 
L 515.700678 226.808878 
z
" clip-path="url(#pcfdf90106d)" style="fill: #74a9cf; opacity: 0.85; stroke: #ffffff; stroke-width: 1.5; stroke-linejoin: miter"/>
   </g>
   <g id="patch_24">
    <path d="M 615.051327 316.978125 
L 694.531847 316.978125 
L 694.531847 214.246482 
L 615.051327 214.246482 
z
" clip-path="url(#pcfdf90106d)" style="fill: #66c2a4; opacity: 0.85; stroke: #ffffff; stroke-width: 1.5; stroke-linejoin: miter"/>
   </g>
   <g id="LineCollection_1">
    <path d="M 456.090288 151.944807 
L 456.090288 138.737396 
" clip-path="url(#pcfdf90106d)" style="fill: none; stroke: #000000; stroke-width: 2"/>
    <path d="M 555.440938 231.104678 
L 555.440938 222.513078 
" clip-path="url(#pcfdf90106d)" style="fill: none; stroke: #000000; stroke-width: 2"/>
    <path d="M 654.791587 218.21666 
L 654.791587 210.276305 
" clip-path="url(#pcfdf90106d)" style="fill: none; stroke: #000000; stroke-width: 2"/>
   </g>
   <g id="line2d_24">
    <defs>
     <path id="m511c33b0ea" d="M 6 0 
L -6 -0 
" style="stroke: #000000"/>
    </defs>
    <g clip-path="url(#pcfdf90106d)">
     <use xlink:href="#m511c33b0ea" x="456.090288" y="151.944807" style="stroke: #000000"/>
     <use xlink:href="#m511c33b0ea" x="555.440938" y="231.104678" style="stroke: #000000"/>
     <use xlink:href="#m511c33b0ea" x="654.791587" y="218.21666" style="stroke: #000000"/>
    </g>
   </g>
   <g id="line2d_25">
    <g clip-path="url(#pcfdf90106d)">
     <use xlink:href="#m511c33b0ea" x="456.090288" y="138.737396" style="stroke: #000000"/>
     <use xlink:href="#m511c33b0ea" x="555.440938" y="222.513078" style="stroke: #000000"/>
     <use xlink:href="#m511c33b0ea" x="654.791587" y="210.276305" style="stroke: #000000"/>
    </g>
   </g>
   <g id="patch_25">
    <path d="M 402.440937 316.978125 
L 402.440937 22.318125 
" style="fill: none; stroke: #262626; stroke-linejoin: miter; stroke-linecap: square"/>
   </g>
   <g id="patch_26">
    <path d="M 402.440937 316.978125 
L 708.440938 316.978125 
" style="fill: none; stroke: #262626; stroke-linejoin: miter; stroke-linecap: square"/>
   </g>
   <g id="text_31">
    <!-- 0.204 -->
    <g style="fill: #262626" transform="translate(438.69396 130.42516) scale(0.11 -0.11)">
     <defs>
      <path id="DejaVuSans-Bold-30" d="M 2944 2338 
Q 2944 3213 2780 3570 
Q 2616 3928 2228 3928 
Q 1841 3928 1675 3570 
Q 1509 3213 1509 2338 
Q 1509 1453 1675 1090 
Q 1841 728 2228 728 
Q 2613 728 2778 1090 
Q 2944 1453 2944 2338 
z
M 4147 2328 
Q 4147 1169 3647 539 
Q 3147 -91 2228 -91 
Q 1306 -91 806 539 
Q 306 1169 306 2328 
Q 306 3491 806 4120 
Q 1306 4750 2228 4750 
Q 3147 4750 3647 4120 
Q 4147 3491 4147 2328 
z
" transform="scale(0.015625)"/>
      <path id="DejaVuSans-Bold-32" d="M 1844 884 
L 3897 884 
L 3897 0 
L 506 0 
L 506 884 
L 2209 2388 
Q 2438 2594 2547 2791 
Q 2656 2988 2656 3200 
Q 2656 3528 2436 3728 
Q 2216 3928 1850 3928 
Q 1569 3928 1234 3808 
Q 900 3688 519 3450 
L 519 4475 
Q 925 4609 1322 4679 
Q 1719 4750 2100 4750 
Q 2938 4750 3402 4381 
Q 3866 4013 3866 3353 
Q 3866 2972 3669 2642 
Q 3472 2313 2841 1759 
L 1844 884 
z
" transform="scale(0.015625)"/>
      <path id="DejaVuSans-Bold-34" d="M 2356 3675 
L 1038 1722 
L 2356 1722 
L 2356 3675 
z
M 2156 4666 
L 3494 4666 
L 3494 1722 
L 4159 1722 
L 4159 850 
L 3494 850 
L 3494 0 
L 2356 0 
L 2356 850 
L 288 850 
L 288 1881 
L 2156 4666 
z
" transform="scale(0.015625)"/>
     </defs>
     <use xlink:href="#DejaVuSans-Bold-30"/>
     <use xlink:href="#DejaVuSans-Bold-2e" transform="translate(69.580078 0)"/>
     <use xlink:href="#DejaVuSans-Bold-32" transform="translate(107.568359 0)"/>
     <use xlink:href="#DejaVuSans-Bold-30" transform="translate(177.148438 0)"/>
     <use xlink:href="#DejaVuSans-Bold-34" transform="translate(246.728516 0)"/>
    </g>
   </g>
   <g id="text_32">
    <!-- 0.107 -->
    <g style="fill: #262626" transform="translate(538.044609 211.892936) scale(0.11 -0.11)">
     <defs>
      <path id="DejaVuSans-Bold-31" d="M 750 831 
L 1813 831 
L 1813 3847 
L 722 3622 
L 722 4441 
L 1806 4666 
L 2950 4666 
L 2950 831 
L 4013 831 
L 4013 0 
L 750 0 
L 750 831 
z
" transform="scale(0.015625)"/>
      <path id="DejaVuSans-Bold-37" d="M 428 4666 
L 3944 4666 
L 3944 3988 
L 2125 0 
L 953 0 
L 2675 3781 
L 428 3781 
L 428 4666 
z
" transform="scale(0.015625)"/>
     </defs>
     <use xlink:href="#DejaVuSans-Bold-30"/>
     <use xlink:href="#DejaVuSans-Bold-2e" transform="translate(69.580078 0)"/>
     <use xlink:href="#DejaVuSans-Bold-31" transform="translate(107.568359 0)"/>
     <use xlink:href="#DejaVuSans-Bold-30" transform="translate(177.148438 0)"/>
     <use xlink:href="#DejaVuSans-Bold-37" transform="translate(246.728516 0)"/>
    </g>
   </g>
   <g id="text_33">
    <!-- 0.122 -->
    <g style="fill: #262626" transform="translate(637.395259 199.33054) scale(0.11 -0.11)">
     <use xlink:href="#DejaVuSans-Bold-30"/>
     <use xlink:href="#DejaVuSans-Bold-2e" transform="translate(69.580078 0)"/>
     <use xlink:href="#DejaVuSans-Bold-31" transform="translate(107.568359 0)"/>
     <use xlink:href="#DejaVuSans-Bold-32" transform="translate(177.148438 0)"/>
     <use xlink:href="#DejaVuSans-Bold-32" transform="translate(246.728516 0)"/>
    </g>
   </g>
   <g id="text_34">
    <!-- B. Cross-Subject Average -->
    <g style="fill: #262626" transform="translate(402.440937 16.318125) scale(0.12 -0.12)">
     <defs>
      <path id="DejaVuSans-Bold-42" d="M 2456 2859 
Q 2741 2859 2887 2984 
Q 3034 3109 3034 3353 
Q 3034 3594 2887 3720 
Q 2741 3847 2456 3847 
L 1791 3847 
L 1791 2859 
L 2456 2859 
z
M 2497 819 
Q 2859 819 3042 972 
Q 3225 1125 3225 1434 
Q 3225 1738 3044 1889 
Q 2863 2041 2497 2041 
L 1791 2041 
L 1791 819 
L 2497 819 
z
M 3616 2497 
Q 4003 2384 4215 2081 
Q 4428 1778 4428 1338 
Q 4428 663 3972 331 
Q 3516 0 2584 0 
L 588 0 
L 588 4666 
L 2394 4666 
Q 3366 4666 3802 4372 
Q 4238 4078 4238 3431 
Q 4238 3091 4078 2852 
Q 3919 2613 3616 2497 
z
" transform="scale(0.015625)"/>
      <path id="DejaVuSans-Bold-43" d="M 4288 256 
Q 3956 84 3597 -3 
Q 3238 -91 2847 -91 
Q 1681 -91 1000 561 
Q 319 1213 319 2328 
Q 319 3447 1000 4098 
Q 1681 4750 2847 4750 
Q 3238 4750 3597 4662 
Q 3956 4575 4288 4403 
L 4288 3438 
Q 3953 3666 3628 3772 
Q 3303 3878 2944 3878 
Q 2300 3878 1931 3465 
Q 1563 3053 1563 2328 
Q 1563 1606 1931 1193 
Q 2300 781 2944 781 
Q 3303 781 3628 887 
Q 3953 994 4288 1222 
L 4288 256 
z
" transform="scale(0.015625)"/>
      <path id="DejaVuSans-Bold-73" d="M 3272 3391 
L 3272 2541 
Q 2913 2691 2578 2766 
Q 2244 2841 1947 2841 
Q 1628 2841 1473 2761 
Q 1319 2681 1319 2516 
Q 1319 2381 1436 2309 
Q 1553 2238 1856 2203 
L 2053 2175 
Q 2913 2066 3209 1816 
Q 3506 1566 3506 1031 
Q 3506 472 3093 190 
Q 2681 -91 1863 -91 
Q 1516 -91 1145 -36 
Q 775 19 384 128 
L 384 978 
Q 719 816 1070 734 
Q 1422 653 1784 653 
Q 2113 653 2278 743 
Q 2444 834 2444 1013 
Q 2444 1163 2330 1236 
Q 2216 1309 1875 1350 
L 1678 1375 
Q 931 1469 631 1722 
Q 331 1975 331 2491 
Q 331 3047 712 3315 
Q 1094 3584 1881 3584 
Q 2191 3584 2531 3537 
Q 2872 3491 3272 3391 
z
" transform="scale(0.015625)"/>
      <path id="DejaVuSans-Bold-2d" d="M 347 2297 
L 2309 2297 
L 2309 1388 
L 347 1388 
L 347 2297 
z
" transform="scale(0.015625)"/>
      <path id="DejaVuSans-Bold-76" d="M 97 3500 
L 1216 3500 
L 2088 1081 
L 2956 3500 
L 4078 3500 
L 2700 0 
L 1472 0 
L 97 3500 
z
" transform="scale(0.015625)"/>
     </defs>
     <use xlink:href="#DejaVuSans-Bold-42"/>
     <use xlink:href="#DejaVuSans-Bold-2e" transform="translate(76.220703 0)"/>
     <use xlink:href="#DejaVuSans-Bold-20" transform="translate(114.208984 0)"/>
     <use xlink:href="#DejaVuSans-Bold-43" transform="translate(149.023438 0)"/>
     <use xlink:href="#DejaVuSans-Bold-72" transform="translate(222.412109 0)"/>
     <use xlink:href="#DejaVuSans-Bold-6f" transform="translate(271.728516 0)"/>
     <use xlink:href="#DejaVuSans-Bold-73" transform="translate(340.429688 0)"/>
     <use xlink:href="#DejaVuSans-Bold-73" transform="translate(399.951172 0)"/>
     <use xlink:href="#DejaVuSans-Bold-2d" transform="translate(459.472656 0)"/>
     <use xlink:href="#DejaVuSans-Bold-53" transform="translate(500.976562 0)"/>
     <use xlink:href="#DejaVuSans-Bold-75" transform="translate(572.998047 0)"/>
     <use xlink:href="#DejaVuSans-Bold-62" transform="translate(644.189453 0)"/>
     <use xlink:href="#DejaVuSans-Bold-6a" transform="translate(715.771484 0)"/>
     <use xlink:href="#DejaVuSans-Bold-65" transform="translate(750.048828 0)"/>
     <use xlink:href="#DejaVuSans-Bold-63" transform="translate(817.871094 0)"/>
     <use xlink:href="#DejaVuSans-Bold-74" transform="translate(877.148438 0)"/>
     <use xlink:href="#DejaVuSans-Bold-20" transform="translate(924.951172 0)"/>
     <use xlink:href="#DejaVuSans-Bold-41" transform="translate(959.765625 0)"/>
     <use xlink:href="#DejaVuSans-Bold-76" transform="translate(1033.533203 0)"/>
     <use xlink:href="#DejaVuSans-Bold-65" transform="translate(1098.71875 0)"/>
     <use xlink:href="#DejaVuSans-Bold-72" transform="translate(1166.541016 0)"/>
     <use xlink:href="#DejaVuSans-Bold-61" transform="translate(1215.857422 0)"/>
     <use xlink:href="#DejaVuSans-Bold-67" transform="translate(1283.337891 0)"/>
     <use xlink:href="#DejaVuSans-Bold-65" transform="translate(1354.919922 0)"/>
    </g>
   </g>
  </g>
  <g id="axes_3">
   <g id="patch_27">
    <path d="M 759.410938 316.978125 
L 1065.410938 316.978125 
L 1065.410938 22.318125 
L 759.410938 22.318125 
z
" style="fill: #ffffff"/>
   </g>
   <g id="matplotlib.axis_5">
    <g id="xtick_8">
     <g id="line2d_26"/>
     <g id="text_35">
      <!-- Visual -->
      <g style="fill: #262626" transform="translate(787.707116 327.316719) scale(0.09 -0.09)">
       <use xlink:href="#DejaVuSans-56"/>
       <use xlink:href="#DejaVuSans-69" transform="translate(66.158203 0)"/>
       <use xlink:href="#DejaVuSans-73" transform="translate(93.941406 0)"/>
       <use xlink:href="#DejaVuSans-75" transform="translate(146.041016 0)"/>
       <use xlink:href="#DejaVuSans-61" transform="translate(209.419922 0)"/>
       <use xlink:href="#DejaVuSans-6c" transform="translate(270.699219 0)"/>
      </g>
     </g>
    </g>
    <g id="xtick_9">
     <g id="line2d_27"/>
     <g id="text_36">
      <!-- Audio -->
      <g style="fill: #262626" transform="translate(899.620391 327.316719) scale(0.09 -0.09)">
       <use xlink:href="#DejaVuSans-41"/>
       <use xlink:href="#DejaVuSans-75" transform="translate(68.408203 0)"/>
       <use xlink:href="#DejaVuSans-64" transform="translate(131.787109 0)"/>
       <use xlink:href="#DejaVuSans-69" transform="translate(195.263672 0)"/>
       <use xlink:href="#DejaVuSans-6f" transform="translate(223.046875 0)"/>
      </g>
     </g>
    </g>
    <g id="xtick_10">
     <g id="line2d_28"/>
     <g id="text_37">
      <!-- Language -->
      <g style="fill: #262626" transform="translate(1001.474759 327.316719) scale(0.09 -0.09)">
       <use xlink:href="#DejaVuSans-4c"/>
       <use xlink:href="#DejaVuSans-61" transform="translate(55.712891 0)"/>
       <use xlink:href="#DejaVuSans-6e" transform="translate(116.992188 0)"/>
       <use xlink:href="#DejaVuSans-67" transform="translate(180.371094 0)"/>
       <use xlink:href="#DejaVuSans-75" transform="translate(243.847656 0)"/>
       <use xlink:href="#DejaVuSans-61" transform="translate(307.226562 0)"/>
       <use xlink:href="#DejaVuSans-67" transform="translate(368.505859 0)"/>
       <use xlink:href="#DejaVuSans-65" transform="translate(431.982422 0)"/>
      </g>
     </g>
    </g>
   </g>
   <g id="matplotlib.axis_6">
    <g id="ytick_17">
     <g id="line2d_29"/>
     <g id="text_38">
      <!-- −0.2 -->
      <g style="fill: #262626" transform="translate(734.056406 320.397422) scale(0.09 -0.09)">
       <defs>
        <path id="DejaVuSans-2212" d="M 678 2272 
L 4684 2272 
L 4684 1741 
L 678 1741 
L 678 2272 
z
" transform="scale(0.015625)"/>
       </defs>
       <use xlink:href="#DejaVuSans-2212"/>
       <use xlink:href="#DejaVuSans-30" transform="translate(83.789062 0)"/>
       <use xlink:href="#DejaVuSans-2e" transform="translate(147.412109 0)"/>
       <use xlink:href="#DejaVuSans-32" transform="translate(179.199219 0)"/>
      </g>
     </g>
    </g>
    <g id="ytick_18">
     <g id="line2d_30"/>
     <g id="text_39">
      <!-- −0.1 -->
      <g style="fill: #262626" transform="translate(734.056406 287.657422) scale(0.09 -0.09)">
       <use xlink:href="#DejaVuSans-2212"/>
       <use xlink:href="#DejaVuSans-30" transform="translate(83.789062 0)"/>
       <use xlink:href="#DejaVuSans-2e" transform="translate(147.412109 0)"/>
       <use xlink:href="#DejaVuSans-31" transform="translate(179.199219 0)"/>
      </g>
     </g>
    </g>
    <g id="ytick_19">
     <g id="line2d_31"/>
     <g id="text_40">
      <!-- 0.0 -->
      <g style="fill: #262626" transform="translate(741.598125 254.917422) scale(0.09 -0.09)">
       <use xlink:href="#DejaVuSans-30"/>
       <use xlink:href="#DejaVuSans-2e" transform="translate(63.623047 0)"/>
       <use xlink:href="#DejaVuSans-30" transform="translate(95.410156 0)"/>
      </g>
     </g>
    </g>
    <g id="ytick_20">
     <g id="line2d_32"/>
     <g id="text_41">
      <!-- 0.1 -->
      <g style="fill: #262626" transform="translate(741.598125 222.177422) scale(0.09 -0.09)">
       <use xlink:href="#DejaVuSans-30"/>
       <use xlink:href="#DejaVuSans-2e" transform="translate(63.623047 0)"/>
       <use xlink:href="#DejaVuSans-31" transform="translate(95.410156 0)"/>
      </g>
     </g>
    </g>
    <g id="ytick_21">
     <g id="line2d_33"/>
     <g id="text_42">
      <!-- 0.2 -->
      <g style="fill: #262626" transform="translate(741.598125 189.437422) scale(0.09 -0.09)">
       <use xlink:href="#DejaVuSans-30"/>
       <use xlink:href="#DejaVuSans-2e" transform="translate(63.623047 0)"/>
       <use xlink:href="#DejaVuSans-32" transform="translate(95.410156 0)"/>
      </g>
     </g>
    </g>
    <g id="ytick_22">
     <g id="line2d_34"/>
     <g id="text_43">
      <!-- 0.3 -->
      <g style="fill: #262626" transform="translate(741.598125 156.697422) scale(0.09 -0.09)">
       <use xlink:href="#DejaVuSans-30"/>
       <use xlink:href="#DejaVuSans-2e" transform="translate(63.623047 0)"/>
       <use xlink:href="#DejaVuSans-33" transform="translate(95.410156 0)"/>
      </g>
     </g>
    </g>
    <g id="ytick_23">
     <g id="line2d_35"/>
     <g id="text_44">
      <!-- 0.4 -->
      <g style="fill: #262626" transform="translate(741.598125 123.957422) scale(0.09 -0.09)">
       <defs>
        <path id="DejaVuSans-34" d="M 2419 4116 
L 825 1625 
L 2419 1625 
L 2419 4116 
z
M 2253 4666 
L 3047 4666 
L 3047 1625 
L 3713 1625 
L 3713 1100 
L 3047 1100 
L 3047 0 
L 2419 0 
L 2419 1100 
L 313 1100 
L 313 1709 
L 2253 4666 
z
" transform="scale(0.015625)"/>
       </defs>
       <use xlink:href="#DejaVuSans-30"/>
       <use xlink:href="#DejaVuSans-2e" transform="translate(63.623047 0)"/>
       <use xlink:href="#DejaVuSans-34" transform="translate(95.410156 0)"/>
      </g>
     </g>
    </g>
    <g id="ytick_24">
     <g id="line2d_36"/>
     <g id="text_45">
      <!-- 0.5 -->
      <g style="fill: #262626" transform="translate(741.598125 91.217422) scale(0.09 -0.09)">
       <use xlink:href="#DejaVuSans-30"/>
       <use xlink:href="#DejaVuSans-2e" transform="translate(63.623047 0)"/>
       <use xlink:href="#DejaVuSans-35" transform="translate(95.410156 0)"/>
      </g>
     </g>
    </g>
    <g id="ytick_25">
     <g id="line2d_37"/>
     <g id="text_46">
      <!-- 0.6 -->
      <g style="fill: #262626" transform="translate(741.598125 58.477422) scale(0.09 -0.09)">
       <defs>
        <path id="DejaVuSans-36" d="M 2113 2584 
Q 1688 2584 1439 2293 
Q 1191 2003 1191 1497 
Q 1191 994 1439 701 
Q 1688 409 2113 409 
Q 2538 409 2786 701 
Q 3034 994 3034 1497 
Q 3034 2003 2786 2293 
Q 2538 2584 2113 2584 
z
M 3366 4563 
L 3366 3988 
Q 3128 4100 2886 4159 
Q 2644 4219 2406 4219 
Q 1781 4219 1451 3797 
Q 1122 3375 1075 2522 
Q 1259 2794 1537 2939 
Q 1816 3084 2150 3084 
Q 2853 3084 3261 2657 
Q 3669 2231 3669 1497 
Q 3669 778 3244 343 
Q 2819 -91 2113 -91 
Q 1303 -91 875 529 
Q 447 1150 447 2328 
Q 447 3434 972 4092 
Q 1497 4750 2381 4750 
Q 2619 4750 2861 4703 
Q 3103 4656 3366 4563 
z
" transform="scale(0.015625)"/>
       </defs>
       <use xlink:href="#DejaVuSans-30"/>
       <use xlink:href="#DejaVuSans-2e" transform="translate(63.623047 0)"/>
       <use xlink:href="#DejaVuSans-36" transform="translate(95.410156 0)"/>
      </g>
     </g>
    </g>
    <g id="ytick_26">
     <g id="line2d_38"/>
     <g id="text_47">
      <!-- 0.7 -->
      <g style="fill: #262626" transform="translate(741.598125 25.737422) scale(0.09 -0.09)">
       <defs>
        <path id="DejaVuSans-37" d="M 525 4666 
L 3525 4666 
L 3525 4397 
L 1831 0 
L 1172 0 
L 2766 4134 
L 525 4134 
L 525 4666 
z
" transform="scale(0.015625)"/>
       </defs>
       <use xlink:href="#DejaVuSans-30"/>
       <use xlink:href="#DejaVuSans-2e" transform="translate(63.623047 0)"/>
       <use xlink:href="#DejaVuSans-37" transform="translate(95.410156 0)"/>
      </g>
     </g>
    </g>
    <g id="text_48">
     <!-- Encoding Accuracy (r) -->
     <g style="fill: #262626" transform="translate(727.682812 237.565391) rotate(-90) scale(0.11 -0.11)">
      <use xlink:href="#DejaVuSans-Bold-45"/>
      <use xlink:href="#DejaVuSans-Bold-6e" transform="translate(68.310547 0)"/>
      <use xlink:href="#DejaVuSans-Bold-63" transform="translate(139.501953 0)"/>
      <use xlink:href="#DejaVuSans-Bold-6f" transform="translate(198.779297 0)"/>
      <use xlink:href="#DejaVuSans-Bold-64" transform="translate(267.480469 0)"/>
      <use xlink:href="#DejaVuSans-Bold-69" transform="translate(339.0625 0)"/>
      <use xlink:href="#DejaVuSans-Bold-6e" transform="translate(373.339844 0)"/>
      <use xlink:href="#DejaVuSans-Bold-67" transform="translate(444.53125 0)"/>
      <use xlink:href="#DejaVuSans-Bold-20" transform="translate(516.113281 0)"/>
      <use xlink:href="#DejaVuSans-Bold-41" transform="translate(550.927734 0)"/>
      <use xlink:href="#DejaVuSans-Bold-63" transform="translate(628.320312 0)"/>
      <use xlink:href="#DejaVuSans-Bold-63" transform="translate(687.597656 0)"/>
      <use xlink:href="#DejaVuSans-Bold-75" transform="translate(746.875 0)"/>
      <use xlink:href="#DejaVuSans-Bold-72" transform="translate(818.066406 0)"/>
      <use xlink:href="#DejaVuSans-Bold-61" transform="translate(867.382812 0)"/>
      <use xlink:href="#DejaVuSans-Bold-63" transform="translate(934.863281 0)"/>
      <use xlink:href="#DejaVuSans-Bold-79" transform="translate(994.140625 0)"/>
      <use xlink:href="#DejaVuSans-Bold-20" transform="translate(1059.326172 0)"/>
      <use xlink:href="#DejaVuSans-Bold-28" transform="translate(1094.140625 0)"/>
      <use xlink:href="#DejaVuSans-Bold-72" transform="translate(1139.84375 0)"/>
      <use xlink:href="#DejaVuSans-Bold-29" transform="translate(1189.160156 0)"/>
     </g>
    </g>
   </g>
   <g id="FillBetweenPolyCollection_1">
    <defs>
     <path id="m6da3dfcd50" d="M 806.395224 -124.491008 
L 795.881196 -124.491008 
L 794.22496 -126.015569 
L 792.358042 -127.54013 
L 790.322354 -129.06469 
L 788.163417 -130.589251 
L 785.928868 -132.113812 
L 783.671175 -133.638373 
L 781.452276 -135.162934 
L 779.346401 -136.687494 
L 777.437995 -138.212055 
L 775.814023 -139.736616 
L 774.5526 -141.261177 
L 773.71151 -142.785737 
L 773.320028 -144.310298 
L 773.375904 -145.834859 
L 773.847399 -147.35942 
L 774.678908 -148.883981 
L 775.798347 -150.408541 
L 777.124935 -151.933102 
L 778.576609 -153.457663 
L 780.076633 -154.982224 
L 781.558939 -156.506784 
L 782.971636 -158.031345 
L 784.278312 -159.555906 
L 785.457218 -161.080467 
L 786.498977 -162.605028 
L 787.403746 -164.129588 
L 788.178597 -165.654149 
L 788.835538 -167.17871 
L 789.390088 -168.703271 
L 789.860098 -170.227831 
L 790.264468 -171.752392 
L 790.621595 -173.276953 
L 790.947596 -174.801514 
L 791.254593 -176.326074 
L 791.549381 -177.850635 
L 791.832813 -179.375196 
L 792.100087 -180.899757 
L 792.341962 -182.424318 
L 792.546895 -183.948878 
L 792.70396 -185.473439 
L 792.806239 -186.998 
L 792.854043 -188.522561 
L 792.856978 -190.047121 
L 792.833911 -191.571682 
L 792.810387 -193.096243 
L 792.81397 -194.620804 
L 792.868803 -196.145365 
L 792.990956 -197.669925 
L 793.185815 -199.194486 
L 793.44793 -200.719047 
L 793.763055 -202.243608 
L 794.11165 -203.768168 
L 794.472993 -205.292729 
L 794.829107 -206.81729 
L 795.167718 -208.341851 
L 795.483594 -209.866412 
L 795.777913 -211.390972 
L 796.055862 -212.915533 
L 796.323276 -214.440094 
L 796.583553 -215.964655 
L 796.835932 -217.489215 
L 797.075719 -219.013776 
L 797.296177 -220.538337 
L 797.491149 -222.062898 
L 797.657275 -223.587459 
L 797.794933 -225.112019 
L 797.907703 -226.63658 
L 798.000803 -228.161141 
L 798.079366 -229.685702 
L 798.147377 -231.210262 
L 798.207675 -232.734823 
L 798.262868 -234.259384 
L 798.316491 -235.783945 
L 798.373629 -237.308505 
L 798.440513 -238.833066 
L 798.523142 -240.357627 
L 798.625507 -241.882188 
L 798.748272 -243.406749 
L 798.888507 -244.931309 
L 799.040649 -246.45587 
L 799.198243 -247.980431 
L 799.355758 -249.504992 
L 799.509754 -251.029552 
L 799.659054 -252.554113 
L 799.804013 -254.078674 
L 799.945329 -255.603235 
L 800.082965 -257.127796 
L 800.215615 -258.652356 
L 800.340842 -260.176917 
L 800.455745 -261.701478 
L 800.557807 -263.226039 
L 800.645611 -264.750599 
L 800.719189 -266.27516 
L 800.779973 -267.799721 
L 800.830395 -269.324282 
L 800.873301 -270.848843 
L 800.911339 -272.373403 
L 800.946465 -273.897964 
L 800.97968 -275.422525 
L 801.29674 -275.422525 
L 801.29674 -275.422525 
L 801.329955 -273.897964 
L 801.365081 -272.373403 
L 801.403119 -270.848843 
L 801.446025 -269.324282 
L 801.496447 -267.799721 
L 801.557231 -266.27516 
L 801.63081 -264.750599 
L 801.718613 -263.226039 
L 801.820675 -261.701478 
L 801.935578 -260.176917 
L 802.060806 -258.652356 
L 802.193455 -257.127796 
L 802.331092 -255.603235 
L 802.472408 -254.078674 
L 802.617367 -252.554113 
L 802.766667 -251.029552 
L 802.920662 -249.504992 
L 803.078177 -247.980431 
L 803.235771 -246.45587 
L 803.387913 -244.931309 
L 803.528149 -243.406749 
L 803.650913 -241.882188 
L 803.753279 -240.357627 
L 803.835907 -238.833066 
L 803.902792 -237.308505 
L 803.959929 -235.783945 
L 804.013552 -234.259384 
L 804.068746 -232.734823 
L 804.129044 -231.210262 
L 804.197054 -229.685702 
L 804.275618 -228.161141 
L 804.368718 -226.63658 
L 804.481487 -225.112019 
L 804.619146 -223.587459 
L 804.785272 -222.062898 
L 804.980244 -220.538337 
L 805.200701 -219.013776 
L 805.440489 -217.489215 
L 805.692868 -215.964655 
L 805.953144 -214.440094 
L 806.220559 -212.915533 
L 806.498507 -211.390972 
L 806.792827 -209.866412 
L 807.108703 -208.341851 
L 807.447313 -206.81729 
L 807.803427 -205.292729 
L 808.16477 -203.768168 
L 808.513365 -202.243608 
L 808.828491 -200.719047 
L 809.090605 -199.194486 
L 809.285464 -197.669925 
L 809.407618 -196.145365 
L 809.46245 -194.620804 
L 809.466034 -193.096243 
L 809.442509 -191.571682 
L 809.419442 -190.047121 
L 809.422378 -188.522561 
L 809.470182 -186.998 
L 809.572461 -185.473439 
L 809.729525 -183.948878 
L 809.934458 -182.424318 
L 810.176333 -180.899757 
L 810.443607 -179.375196 
L 810.72704 -177.850635 
L 811.021827 -176.326074 
L 811.328824 -174.801514 
L 811.654826 -173.276953 
L 812.011952 -171.752392 
L 812.416322 -170.227831 
L 812.886332 -168.703271 
L 813.440882 -167.17871 
L 814.097823 -165.654149 
L 814.872674 -164.129588 
L 815.777443 -162.605028 
L 816.819203 -161.080467 
L 817.998108 -159.555906 
L 819.304784 -158.031345 
L 820.717482 -156.506784 
L 822.199787 -154.982224 
L 823.699811 -153.457663 
L 825.151485 -151.933102 
L 826.478074 -150.408541 
L 827.597513 -148.883981 
L 828.429021 -147.35942 
L 828.900516 -145.834859 
L 828.956392 -144.310298 
L 828.56491 -142.785737 
L 827.72382 -141.261177 
L 826.462397 -139.736616 
L 824.838426 -138.212055 
L 822.93002 -136.687494 
L 820.824144 -135.162934 
L 818.605246 -133.638373 
L 816.347553 -132.113812 
L 814.113003 -130.589251 
L 811.954067 -129.06469 
L 809.918379 -127.54013 
L 808.051461 -126.015569 
L 806.395224 -124.491008 
z
" style="stroke: #ffffff; stroke-opacity: 0.7; stroke-width: 1.5"/>
    </defs>
    <g clip-path="url(#pf474481b9b)">
     <use xlink:href="#m6da3dfcd50" x="0" y="351.120312" style="fill: #ef6548; fill-opacity: 0.7; stroke: #ffffff; stroke-opacity: 0.7; stroke-width: 1.5"/>
    </g>
   </g>
   <g id="FillBetweenPolyCollection_2">
    <defs>
     <path id="m911cd9f5f5" d="M 915.237772 -104.645963 
L 909.584103 -104.645963 
L 908.172444 -106.031329 
L 906.310951 -107.416694 
L 903.997136 -108.802059 
L 901.323933 -110.187425 
L 898.479938 -111.57279 
L 895.699123 -112.958155 
L 893.182922 -114.343521 
L 891.040173 -115.728886 
L 889.278049 -117.114251 
L 887.840913 -118.499617 
L 886.665592 -119.884982 
L 885.721223 -121.270347 
L 885.022373 -122.655713 
L 884.622033 -124.041078 
L 884.592756 -125.426443 
L 884.997708 -126.811809 
L 885.855294 -128.197174 
L 887.113308 -129.58254 
L 888.653502 -130.967905 
L 890.330209 -132.35327 
L 892.019353 -133.738636 
L 893.645798 -135.124001 
L 895.177725 -136.509366 
L 896.603865 -137.894732 
L 897.915642 -139.280097 
L 899.102078 -140.665462 
L 900.15173 -142.050828 
L 901.055683 -143.436193 
L 901.811345 -144.821558 
L 902.42768 -146.206924 
L 902.928628 -147.592289 
L 903.350192 -148.977654 
L 903.730964 -150.36302 
L 904.101125 -151.748385 
L 904.475783 -153.13375 
L 904.854932 -154.519116 
L 905.2285 -155.904481 
L 905.583611 -157.289846 
L 905.911503 -158.675212 
L 906.212073 -160.060577 
L 906.494771 -161.445942 
L 906.776038 -162.831308 
L 907.074597 -164.216673 
L 907.405928 -165.602039 
L 907.776853 -166.987404 
L 908.181842 -168.372769 
L 908.603382 -169.758135 
L 909.017406 -171.1435 
L 909.401436 -172.528865 
L 909.740742 -173.914231 
L 910.029507 -175.299596 
L 910.268227 -176.684961 
L 910.46111 -178.070327 
L 910.61543 -179.455692 
L 910.741326 -180.841057 
L 910.849804 -182.226423 
L 910.94936 -183.611788 
L 911.043904 -184.997153 
L 911.133548 -186.382519 
L 911.217098 -187.767884 
L 911.294072 -189.153249 
L 911.365314 -190.538615 
L 911.432501 -191.92398 
L 911.497036 -193.309345 
L 911.558634 -194.694711 
L 911.614408 -196.080076 
L 911.659498 -197.465441 
L 911.689513 -198.850807 
L 911.703554 -200.236172 
L 911.70594 -201.621538 
L 911.705614 -203.006903 
L 911.713587 -204.392268 
L 911.739495 -205.777634 
L 911.788281 -207.162999 
L 911.857979 -208.548364 
L 911.939644 -209.93373 
L 912.020038 -211.319095 
L 912.08631 -212.70446 
L 912.130487 -214.089826 
L 912.151539 -215.475191 
L 912.154268 -216.860556 
L 912.146307 -218.245922 
L 912.135318 -219.631287 
L 912.127462 -221.016652 
L 912.12662 -222.402018 
L 912.133543 -223.787383 
L 912.145295 -225.172748 
L 912.15634 -226.558114 
L 912.161677 -227.943479 
L 912.160241 -229.328844 
L 912.155916 -230.71421 
L 912.155123 -232.099575 
L 912.162786 -233.48494 
L 912.17973 -234.870306 
L 912.203122 -236.255671 
L 912.229043 -237.641037 
L 912.25491 -239.026402 
L 912.280131 -240.411767 
L 912.305099 -241.797133 
L 912.516776 -241.797133 
L 912.516776 -241.797133 
L 912.541744 -240.411767 
L 912.566965 -239.026402 
L 912.592832 -237.641037 
L 912.618753 -236.255671 
L 912.642145 -234.870306 
L 912.659089 -233.48494 
L 912.666752 -232.099575 
L 912.665959 -230.71421 
L 912.661634 -229.328844 
L 912.660198 -227.943479 
L 912.665535 -226.558114 
L 912.67658 -225.172748 
L 912.688332 -223.787383 
L 912.695255 -222.402018 
L 912.694413 -221.016652 
L 912.686557 -219.631287 
L 912.675568 -218.245922 
L 912.667607 -216.860556 
L 912.670336 -215.475191 
L 912.691388 -214.089826 
L 912.735565 -212.70446 
L 912.801837 -211.319095 
L 912.882231 -209.93373 
L 912.963896 -208.548364 
L 913.033594 -207.162999 
L 913.08238 -205.777634 
L 913.108288 -204.392268 
L 913.116261 -203.006903 
L 913.115935 -201.621538 
L 913.118321 -200.236172 
L 913.132362 -198.850807 
L 913.162377 -197.465441 
L 913.207467 -196.080076 
L 913.263241 -194.694711 
L 913.324839 -193.309345 
L 913.389374 -191.92398 
L 913.456561 -190.538615 
L 913.527803 -189.153249 
L 913.604777 -187.767884 
L 913.688327 -186.382519 
L 913.777971 -184.997153 
L 913.872515 -183.611788 
L 913.972071 -182.226423 
L 914.080549 -180.841057 
L 914.206445 -179.455692 
L 914.360765 -178.070327 
L 914.553648 -176.684961 
L 914.792368 -175.299596 
L 915.081133 -173.914231 
L 915.420439 -172.528865 
L 915.804469 -171.1435 
L 916.218493 -169.758135 
L 916.640033 -168.372769 
L 917.045022 -166.987404 
L 917.415947 -165.602039 
L 917.747278 -164.216673 
L 918.045837 -162.831308 
L 918.327104 -161.445942 
L 918.609802 -160.060577 
L 918.910372 -158.675212 
L 919.238264 -157.289846 
L 919.593375 -155.904481 
L 919.966943 -154.519116 
L 920.346092 -153.13375 
L 920.72075 -151.748385 
L 921.090911 -150.36302 
L 921.471683 -148.977654 
L 921.893247 -147.592289 
L 922.394195 -146.206924 
L 923.01053 -144.821558 
L 923.766192 -143.436193 
L 924.670145 -142.050828 
L 925.719797 -140.665462 
L 926.906233 -139.280097 
L 928.21801 -137.894732 
L 929.64415 -136.509366 
L 931.176077 -135.124001 
L 932.802522 -133.738636 
L 934.491666 -132.35327 
L 936.168373 -130.967905 
L 937.708567 -129.58254 
L 938.966581 -128.197174 
L 939.824167 -126.811809 
L 940.229119 -125.426443 
L 940.199842 -124.041078 
L 939.799502 -122.655713 
L 939.100652 -121.270347 
L 938.156283 -119.884982 
L 936.980962 -118.499617 
L 935.543826 -117.114251 
L 933.781702 -115.728886 
L 931.638953 -114.343521 
L 929.122752 -112.958155 
L 926.341937 -111.57279 
L 923.497942 -110.187425 
L 920.824739 -108.802059 
L 918.510924 -107.416694 
L 916.649431 -106.031329 
L 915.237772 -104.645963 
z
" style="stroke: #ffffff; stroke-opacity: 0.7; stroke-width: 1.5"/>
    </defs>
    <g clip-path="url(#pf474481b9b)">
     <use xlink:href="#m911cd9f5f5" x="0" y="351.120312" style="fill: #74a9cf; fill-opacity: 0.7; stroke: #ffffff; stroke-opacity: 0.7; stroke-width: 1.5"/>
    </g>
   </g>
   <g id="FillBetweenPolyCollection_3">
    <defs>
     <path id="m7e7d7e83e1" d="M 1027.026346 -111.265437 
L 1020.340983 -111.265437 
L 1018.905474 -112.287413 
L 1017.12766 -113.309389 
L 1015.016996 -114.331365 
L 1012.612744 -115.353341 
L 1009.987872 -116.375317 
L 1007.249497 -117.397293 
L 1004.533732 -118.419269 
L 1001.993366 -119.441245 
L 999.778433 -120.463221 
L 998.012577 -121.485197 
L 996.771342 -122.507173 
L 996.069921 -123.529149 
L 995.865483 -124.551125 
L 996.07327 -125.573101 
L 996.589455 -126.595078 
L 997.311405 -127.617054 
L 998.148964 -128.63903 
L 999.026505 -129.661006 
L 999.880409 -130.682982 
L 1000.657341 -131.704958 
L 1001.315804 -132.726934 
L 1001.829944 -133.74891 
L 1002.19312 -134.770886 
L 1002.419489 -135.792862 
L 1002.542883 -136.814838 
L 1002.612256 -137.836814 
L 1002.682675 -138.85879 
L 1002.802102 -139.880766 
L 1002.997408 -140.902742 
L 1003.266001 -141.924718 
L 1003.578943 -142.946694 
L 1003.89645 -143.96867 
L 1004.189717 -144.990646 
L 1004.458502 -146.012622 
L 1004.735241 -147.034598 
L 1005.073378 -148.056574 
L 1005.525853 -149.07855 
L 1006.124316 -150.100526 
L 1006.868094 -151.122502 
L 1007.725991 -152.144478 
L 1008.647955 -153.166455 
L 1009.580599 -154.188431 
L 1010.480974 -155.210407 
L 1011.324917 -156.232383 
L 1012.10829 -157.254359 
L 1012.841454 -158.276335 
L 1013.539676 -159.298311 
L 1014.214008 -160.320287 
L 1014.866941 -161.342263 
L 1015.494164 -162.364239 
L 1016.089884 -163.386215 
L 1016.651368 -164.408191 
L 1017.179788 -165.430167 
L 1017.677724 -166.452143 
L 1018.145992 -167.474119 
L 1018.58243 -168.496095 
L 1018.983404 -169.518071 
L 1019.346869 -170.540047 
L 1019.674913 -171.562023 
L 1019.974117 -172.583999 
L 1020.25328 -173.605975 
L 1020.519525 -174.627951 
L 1020.774823 -175.649927 
L 1021.014986 -176.671903 
L 1021.23198 -177.693879 
L 1021.418508 -178.715856 
L 1021.572301 -179.737832 
L 1021.697725 -180.759808 
L 1021.803946 -181.781784 
L 1021.901015 -182.80376 
L 1021.996241 -183.825736 
L 1022.092607 -184.847712 
L 1022.18943 -185.869688 
L 1022.284184 -186.891664 
L 1022.374182 -187.91364 
L 1022.457435 -188.935616 
L 1022.532796 -189.957592 
L 1022.599861 -190.979568 
L 1022.658884 -192.001544 
L 1022.710697 -193.02352 
L 1022.756514 -194.045496 
L 1022.797662 -195.067472 
L 1022.835342 -196.089448 
L 1022.870475 -197.111424 
L 1022.903605 -198.1334 
L 1022.934841 -199.155376 
L 1022.963914 -200.177352 
L 1022.990419 -201.199328 
L 1023.014233 -202.221304 
L 1023.035999 -203.24328 
L 1023.057484 -204.265257 
L 1023.081592 -205.287233 
L 1023.111865 -206.309209 
L 1023.151499 -207.331185 
L 1023.202174 -208.353161 
L 1023.263207 -209.375137 
L 1023.331447 -210.397113 
L 1023.401998 -211.419089 
L 1023.469485 -212.441065 
L 1023.897844 -212.441065 
L 1023.897844 -212.441065 
L 1023.965332 -211.419089 
L 1024.035883 -210.397113 
L 1024.104122 -209.375137 
L 1024.165156 -208.353161 
L 1024.215831 -207.331185 
L 1024.255465 -206.309209 
L 1024.285738 -205.287233 
L 1024.309845 -204.265257 
L 1024.33133 -203.24328 
L 1024.353096 -202.221304 
L 1024.376911 -201.199328 
L 1024.403416 -200.177352 
L 1024.432489 -199.155376 
L 1024.463725 -198.1334 
L 1024.496854 -197.111424 
L 1024.531988 -196.089448 
L 1024.569668 -195.067472 
L 1024.610816 -194.045496 
L 1024.656633 -193.02352 
L 1024.708445 -192.001544 
L 1024.767469 -190.979568 
L 1024.834533 -189.957592 
L 1024.909895 -188.935616 
L 1024.993147 -187.91364 
L 1025.083146 -186.891664 
L 1025.177899 -185.869688 
L 1025.274722 -184.847712 
L 1025.371089 -183.825736 
L 1025.466315 -182.80376 
L 1025.563384 -181.781784 
L 1025.669604 -180.759808 
L 1025.795028 -179.737832 
L 1025.948821 -178.715856 
L 1026.135349 -177.693879 
L 1026.352344 -176.671903 
L 1026.592506 -175.649927 
L 1026.847805 -174.627951 
L 1027.11405 -173.605975 
L 1027.393212 -172.583999 
L 1027.692416 -171.562023 
L 1028.020461 -170.540047 
L 1028.383926 -169.518071 
L 1028.7849 -168.496095 
L 1029.221337 -167.474119 
L 1029.689606 -166.452143 
L 1030.187541 -165.430167 
L 1030.715962 -164.408191 
L 1031.277446 -163.386215 
L 1031.873165 -162.364239 
L 1032.500388 -161.342263 
L 1033.153322 -160.320287 
L 1033.827653 -159.298311 
L 1034.525875 -158.276335 
L 1035.25904 -157.254359 
L 1036.042412 -156.232383 
L 1036.886356 -155.210407 
L 1037.786731 -154.188431 
L 1038.719374 -153.166455 
L 1039.641339 -152.144478 
L 1040.499236 -151.122502 
L 1041.243013 -150.100526 
L 1041.841476 -149.07855 
L 1042.293951 -148.056574 
L 1042.632089 -147.034598 
L 1042.908828 -146.012622 
L 1043.177613 -144.990646 
L 1043.47088 -143.96867 
L 1043.788386 -142.946694 
L 1044.101328 -141.924718 
L 1044.369922 -140.902742 
L 1044.565228 -139.880766 
L 1044.684655 -138.85879 
L 1044.755074 -137.836814 
L 1044.824446 -136.814838 
L 1044.94784 -135.792862 
L 1045.174209 -134.770886 
L 1045.537385 -133.74891 
L 1046.051525 -132.726934 
L 1046.709989 -131.704958 
L 1047.486921 -130.682982 
L 1048.340825 -129.661006 
L 1049.218366 -128.63903 
L 1050.055924 -127.617054 
L 1050.777875 -126.595078 
L 1051.29406 -125.573101 
L 1051.501847 -124.551125 
L 1051.297409 -123.529149 
L 1050.595987 -122.507173 
L 1049.354752 -121.485197 
L 1047.588897 -120.463221 
L 1045.373964 -119.441245 
L 1042.833598 -118.419269 
L 1040.117833 -117.397293 
L 1037.379458 -116.375317 
L 1034.754586 -115.353341 
L 1032.350333 -114.331365 
L 1030.23967 -113.309389 
L 1028.461856 -112.287413 
L 1027.026346 -111.265437 
z
" style="stroke: #ffffff; stroke-opacity: 0.7; stroke-width: 1.5"/>
    </defs>
    <g clip-path="url(#pf474481b9b)">
     <use xlink:href="#m7e7d7e83e1" x="0" y="351.120312" style="fill: #66c2a4; fill-opacity: 0.7; stroke: #ffffff; stroke-opacity: 0.7; stroke-width: 1.5"/>
    </g>
   </g>
   <g id="LineCollection_2">
    <path d="M 787.229119 184.750394 
L 815.047301 184.750394 
" clip-path="url(#pf474481b9b)" style="fill: none; stroke: #000000; stroke-width: 2"/>
   </g>
   <g id="LineCollection_3">
    <path d="M 787.229119 75.697788 
L 815.047301 75.697788 
" clip-path="url(#pf474481b9b)" style="fill: none; stroke: #808080; stroke-width: 2"/>
   </g>
   <g id="LineCollection_4">
    <path d="M 787.229119 226.629304 
L 815.047301 226.629304 
" clip-path="url(#pf474481b9b)" style="fill: none; stroke: #808080; stroke-width: 2"/>
   </g>
   <g id="LineCollection_5">
    <path d="M 801.13821 226.629304 
L 801.13821 75.697788 
" clip-path="url(#pf474481b9b)" style="fill: none; stroke: #808080; stroke-width: 2"/>
   </g>
   <g id="LineCollection_6">
    <path d="M 898.501847 216.432307 
L 926.320028 216.432307 
" clip-path="url(#pf474481b9b)" style="fill: none; stroke: #000000; stroke-width: 2"/>
   </g>
   <g id="LineCollection_7">
    <path d="M 898.501847 109.32318 
L 926.320028 109.32318 
" clip-path="url(#pf474481b9b)" style="fill: none; stroke: #808080; stroke-width: 2"/>
   </g>
   <g id="LineCollection_8">
    <path d="M 898.501847 246.474349 
L 926.320028 246.474349 
" clip-path="url(#pf474481b9b)" style="fill: none; stroke: #808080; stroke-width: 2"/>
   </g>
   <g id="LineCollection_9">
    <path d="M 912.410938 246.474349 
L 912.410938 109.32318 
" clip-path="url(#pf474481b9b)" style="fill: none; stroke: #808080; stroke-width: 2"/>
   </g>
   <g id="LineCollection_10">
    <path d="M 1009.774574 211.546931 
L 1037.592756 211.546931 
" clip-path="url(#pf474481b9b)" style="fill: none; stroke: #000000; stroke-width: 2"/>
   </g>
   <g id="LineCollection_11">
    <path d="M 1009.774574 138.679248 
L 1037.592756 138.679248 
" clip-path="url(#pf474481b9b)" style="fill: none; stroke: #808080; stroke-width: 2"/>
   </g>
   <g id="LineCollection_12">
    <path d="M 1009.774574 239.854876 
L 1037.592756 239.854876 
" clip-path="url(#pf474481b9b)" style="fill: none; stroke: #808080; stroke-width: 2"/>
   </g>
   <g id="LineCollection_13">
    <path d="M 1023.683665 239.854876 
L 1023.683665 138.679248 
" clip-path="url(#pf474481b9b)" style="fill: none; stroke: #808080; stroke-width: 2"/>
   </g>
   <g id="line2d_39">
    <path d="M 759.410938 251.498125 
L 1065.410938 251.498125 
" clip-path="url(#pf474481b9b)" style="fill: none; stroke-dasharray: 3.7,1.6; stroke-dashoffset: 0; stroke: #808080; stroke-opacity: 0.5"/>
   </g>
   <g id="patch_28">
    <path d="M 759.410938 316.978125 
L 759.410938 22.318125 
" style="fill: none; stroke: #262626; stroke-linejoin: miter; stroke-linecap: square"/>
   </g>
   <g id="patch_29">
    <path d="M 759.410938 316.978125 
L 1065.410938 316.978125 
" style="fill: none; stroke: #262626; stroke-linejoin: miter; stroke-linecap: square"/>
   </g>
   <g id="text_49">
    <!-- C. Regional Distribution -->
    <g style="fill: #262626" transform="translate(759.410938 16.318125) scale(0.12 -0.12)">
     <defs>
      <path id="DejaVuSans-Bold-52" d="M 2297 2597 
Q 2675 2597 2839 2737 
Q 3003 2878 3003 3200 
Q 3003 3519 2839 3656 
Q 2675 3794 2297 3794 
L 1791 3794 
L 1791 2597 
L 2297 2597 
z
M 1791 1766 
L 1791 0 
L 588 0 
L 588 4666 
L 2425 4666 
Q 3347 4666 3776 4356 
Q 4206 4047 4206 3378 
Q 4206 2916 3982 2619 
Q 3759 2322 3309 2181 
Q 3556 2125 3751 1926 
Q 3947 1728 4147 1325 
L 4800 0 
L 3519 0 
L 2950 1159 
Q 2778 1509 2601 1637 
Q 2425 1766 2131 1766 
L 1791 1766 
z
" transform="scale(0.015625)"/>
      <path id="DejaVuSans-Bold-6c" d="M 538 4863 
L 1656 4863 
L 1656 0 
L 538 0 
L 538 4863 
z
" transform="scale(0.015625)"/>
      <path id="DejaVuSans-Bold-44" d="M 1791 3756 
L 1791 909 
L 2222 909 
Q 2959 909 3348 1275 
Q 3738 1641 3738 2338 
Q 3738 3031 3350 3393 
Q 2963 3756 2222 3756 
L 1791 3756 
z
M 588 4666 
L 1856 4666 
Q 2919 4666 3439 4514 
Q 3959 4363 4331 4000 
Q 4659 3684 4818 3271 
Q 4978 2859 4978 2338 
Q 4978 1809 4818 1395 
Q 4659 981 4331 666 
Q 3956 303 3431 151 
Q 2906 0 1856 0 
L 588 0 
L 588 4666 
z
" transform="scale(0.015625)"/>
     </defs>
     <use xlink:href="#DejaVuSans-Bold-43"/>
     <use xlink:href="#DejaVuSans-Bold-2e" transform="translate(73.388672 0)"/>
     <use xlink:href="#DejaVuSans-Bold-20" transform="translate(111.376953 0)"/>
     <use xlink:href="#DejaVuSans-Bold-52" transform="translate(146.191406 0)"/>
     <use xlink:href="#DejaVuSans-Bold-65" transform="translate(223.193359 0)"/>
     <use xlink:href="#DejaVuSans-Bold-67" transform="translate(291.015625 0)"/>
     <use xlink:href="#DejaVuSans-Bold-69" transform="translate(362.597656 0)"/>
     <use xlink:href="#DejaVuSans-Bold-6f" transform="translate(396.875 0)"/>
     <use xlink:href="#DejaVuSans-Bold-6e" transform="translate(465.576172 0)"/>
     <use xlink:href="#DejaVuSans-Bold-61" transform="translate(536.767578 0)"/>
     <use xlink:href="#DejaVuSans-Bold-6c" transform="translate(604.248047 0)"/>
     <use xlink:href="#DejaVuSans-Bold-20" transform="translate(638.525391 0)"/>
     <use xlink:href="#DejaVuSans-Bold-44" transform="translate(673.339844 0)"/>
     <use xlink:href="#DejaVuSans-Bold-69" transform="translate(756.347656 0)"/>
     <use xlink:href="#DejaVuSans-Bold-73" transform="translate(790.625 0)"/>
     <use xlink:href="#DejaVuSans-Bold-74" transform="translate(850.146484 0)"/>
     <use xlink:href="#DejaVuSans-Bold-72" transform="translate(897.949219 0)"/>
     <use xlink:href="#DejaVuSans-Bold-69" transform="translate(947.265625 0)"/>
     <use xlink:href="#DejaVuSans-Bold-62" transform="translate(981.542969 0)"/>
     <use xlink:href="#DejaVuSans-Bold-75" transform="translate(1053.125 0)"/>
     <use xlink:href="#DejaVuSans-Bold-74" transform="translate(1124.316406 0)"/>
     <use xlink:href="#DejaVuSans-Bold-69" transform="translate(1172.119141 0)"/>
     <use xlink:href="#DejaVuSans-Bold-6f" transform="translate(1206.396484 0)"/>
     <use xlink:href="#DejaVuSans-Bold-6e" transform="translate(1275.097656 0)"/>
    </g>
   </g>
  </g>
 </g>
 <defs>
  <clipPath id="p86acde6c93">
   <rect x="45.470938" y="22.318125" width="306" height="294.66"/>
  </clipPath>
  <clipPath id="pcfdf90106d">
   <rect x="402.440937" y="22.318125" width="306" height="294.66"/>
  </clipPath>
  <clipPath id="pf474481b9b">
   <rect x="759.410938" y="22.318125" width="306" height="294.66"/>
  </clipPath>
 </defs>
</svg>
